<svg xmlns="http://www.w3.org/2000/svg" xmlns:xlink="http://www.w3.org/1999/xlink">
	<defs>
		<style>
			.fadeInFromLeft0 {
        animation-name:fadeInAnime0;
        animation-duration: 0.3s;
        animation-fill-mode:forwards;
        animation-delay: 1.9s;
        animation-timing-function: ease-out;
        opacity:0;
      }
      @keyframes fadeInAnime0 {
        from {
          opacity: 0;
        }
        to {
          opacity: 1;
        }
      }

			.fadeInFromLeft {
        animation-name:fadeInAnime3;
        animation-duration: 1.2s;
        animation-fill-mode:forwards;
        animation-delay: 1.9s;
        animation-timing-function: ease-out;
        opacity:0;
      }
      @keyframes fadeInAnime3 {
        from {
          opacity: 0;
          width: 0;
        }
        to {
          opacity: 1;
          width: 100%;
        }
      }
		</style>
	</defs>
	<svg class="fadeInFromLeft0" x="-132" y="0" width="449.4" height="30" viewBox="0 0 449.4 100" xmlns="http://www.w3.org/2000/svg"><g id="svgGroup" stroke-linecap="round" fill-rule="evenodd" font-size="9pt" stroke="#a0abb5" stroke-width="0.25mm" fill="#a0abb5" style="stroke:#a0abb5;stroke-width:0.25mm;fill:#a0abb5"><path d="M 399.5 81 L 388 31.2 L 393.8 31.2 L 402.9 74.5 L 403.2 74.5 L 416.1 31.2 L 421.7 31.2 L 433.4 74.5 L 433.7 74.5 L 443.6 31.2 L 449.4 31.2 L 437 81 L 430.8 81 L 419 37.9 L 418.8 37.9 L 405.8 81 L 399.5 81 Z M 38.3 42.4 L 47 51.1 L 47 72.1 L 38.1 81 L 26.7 81 L 26.7 92 L 21.3 92 L 21.3 81 L 8.7 81 L 0 72.3 L 0 67 L 5.7 67 L 5.7 70.3 L 11.1 75.8 L 21.3 75.8 L 21.3 47.6 L 8.9 47.6 L 0.2 39 L 0.2 19.7 L 8.9 11 L 21.3 11 L 21.3 0 L 26.7 0 L 26.7 11 L 37.5 11 L 46.2 19.7 L 46.2 25.1 L 40.5 25.1 L 40.5 21.6 L 35 16.2 L 26.7 16.2 L 26.7 42.4 L 38.3 42.4 Z M 181.9 81 L 173.2 72.3 L 173.2 39.9 L 181.9 31.2 L 206.2 31.2 L 215 39.9 L 215 57.6 L 178.8 57.6 L 178.8 70.4 L 184.4 75.9 L 203.7 75.9 L 209.3 70.5 L 209.3 66.1 L 214.9 66.1 L 214.9 72.2 L 206.1 81 L 181.9 81 Z M 345.4 81 L 336.7 72.3 L 336.7 39.9 L 345.4 31.2 L 369.7 31.2 L 378.5 39.9 L 378.5 57.6 L 342.3 57.6 L 342.3 70.4 L 347.9 75.9 L 367.2 75.9 L 372.8 70.5 L 372.8 66.1 L 378.4 66.1 L 378.4 72.2 L 369.6 81 L 345.4 81 Z M 140.3 81 L 122.3 31.2 L 128.2 31.2 L 143.6 75.6 L 144 75.6 L 159.4 31.2 L 165.2 31.2 L 147.4 81 L 140.3 81 Z M 279.2 81 L 261.2 31.2 L 267.1 31.2 L 282.5 75.6 L 282.9 75.6 L 298.3 31.2 L 304.1 31.2 L 286.3 81 L 279.2 81 Z M 71.5 81 L 61 70.5 L 61 21.5 L 71.5 11 L 102.3 11 L 112.8 21.5 L 112.8 70.5 L 102.3 81 L 71.5 81 Z M 74.1 75.8 L 99.7 75.8 L 107 68.5 L 107 23.4 L 99.7 16.2 L 74.1 16.2 L 66.8 23.4 L 66.8 68.5 L 74.1 75.8 Z M 229.5 81 L 229.5 31.2 L 235 31.2 L 235 40.5 L 244.4 31.2 L 256.7 31.2 L 256.7 36.2 L 246 36.2 L 235.1 47 L 235.1 81 L 229.5 81 Z M 315.1 81 L 315.1 31.2 L 320.7 31.2 L 320.7 81 L 315.1 81 Z M 178.8 52.7 L 209.4 52.7 L 209.4 41.7 L 203.9 36.2 L 184.3 36.2 L 178.8 41.7 L 178.8 52.7 Z M 342.3 52.7 L 372.9 52.7 L 372.9 41.7 L 367.4 36.2 L 347.8 36.2 L 342.3 41.7 L 342.3 52.7 Z M 41.3 70.1 L 41.3 53.1 L 35.8 47.6 L 26.7 47.6 L 26.7 75.8 L 35.8 75.8 L 41.3 70.1 Z M 11.4 42.4 L 21.3 42.4 L 21.3 16.2 L 11.4 16.2 L 5.9 21.6 L 5.9 37 L 11.4 42.4 Z M 316.1 22 L 313.6 19.5 L 313.6 15.7 L 316.1 13.2 L 319.7 13.2 L 322.2 15.7 L 322.2 19.5 L 319.7 22 L 316.1 22 Z" vector-effect="non-scaling-stroke"/></g></svg>
	<line class="fadeInFromLeft" x1="20" y1="30" x2="100%" y2="30" stroke="#c9d1d9" stroke-width="1.4px" />
</svg>