<svg xmlns="http://www.w3.org/2000/svg" xmlns:xlink="http://www.w3.org/1999/xlink">
	<defs>
		<style>
			.fadeInFromLeft0 {
        animation-name:fadeInAnime0;
        animation-duration: 0.3s;
        animation-fill-mode:forwards;
        animation-delay: 1.7s;
        animation-timing-function: ease-out;
        opacity:0;
      }
      @keyframes fadeInAnime0 {
        from {
          opacity: 0;
        }
        to {
          opacity: 1;
        }
      }

			.fadeInFromLeft {
        animation-name:fadeInAnime3;
        animation-duration: 1.2s;
        animation-fill-mode:forwards;
        animation-delay: 1.7s;
        animation-timing-function: ease-out;
        opacity:0;
      }
      @keyframes fadeInAnime3 {
        from {
          opacity: 0;
          width: 0;
        }
        to {
          opacity: 1;
          width: 100%;
        }
      }
		</style>
	</defs>
  <svg class="fadeInFromLeft0" x="-152" y="0" width="510" height="30" viewBox="0 0 672.3 102.7" xmlns="http://www.w3.org/2000/svg"><g id="svgGroup" stroke-linecap="round" fill-rule="evenodd" font-size="9pt" stroke="#a0abb5" stroke-width="0.25mm" fill="#a0abb5" style="stroke:#a0abb5;stroke-width:0.25mm;fill:#a0abb5"><path d="M 866.7 31.2 L 872.3 31.2 L 872.3 94.1 L 863.6 102.7 L 840.3 102.7 L 833.2 95.7 L 833.2 90 L 838.8 90 L 838.8 93.9 L 842.7 97.7 L 861.2 97.7 L 866.7 92.3 L 866.7 69.2 L 854.9 81 L 840.4 81 L 831.7 72.3 L 831.7 31.2 L 837.3 31.2 L 837.3 70.5 L 842.8 75.9 L 853.3 75.9 L 866.7 62.4 L 866.7 31.2 Z M 38.3 42.4 L 47 51.1 L 47 72.1 L 38.1 81 L 26.7 81 L 26.7 92 L 21.3 92 L 21.3 81 L 8.7 81 L 0 72.3 L 0 67 L 5.7 67 L 5.7 70.3 L 11.1 75.8 L 21.3 75.8 L 21.3 47.6 L 8.9 47.6 L 0.2 39 L 0.2 19.7 L 8.9 11 L 21.3 11 L 21.3 0 L 26.7 0 L 26.7 11 L 37.5 11 L 46.2 19.7 L 46.2 25.1 L 40.5 25.1 L 40.5 21.6 L 35 16.2 L 26.7 16.2 L 26.7 42.4 L 38.3 42.4 Z M 632.8 81 L 625.1 73.3 L 625.1 67.1 L 630.7 67.1 L 630.7 71.6 L 635.2 76 L 654.4 76 L 658.9 71.6 L 658.9 62.8 L 654.4 58.3 L 632.9 58.3 L 625.5 50.9 L 625.5 38.9 L 633.3 31.2 L 655.8 31.2 L 663.5 38.9 L 663.5 45.1 L 657.9 45.1 L 657.9 40.6 L 653.4 36.1 L 635.7 36.1 L 631.1 40.6 L 631.1 49 L 635.7 53.5 L 656.7 53.5 L 664.5 61.3 L 664.5 73.2 L 656.7 81 L 632.8 81 Z M 434.7 49.7 L 442.9 58.6 L 442.9 81 L 437.1 81 L 437.1 60.2 L 428.2 50.7 L 400.9 50.7 L 400.9 81 L 395.1 81 L 395.1 11 L 433.8 11 L 442.5 19.7 L 442.5 41.9 L 434.7 49.7 Z M 146.5 81 L 146.5 31.2 L 152 31.2 L 152 42.8 L 163.6 31.2 L 178.3 31.2 L 187 39.9 L 187 81 L 181.4 81 L 181.4 41.7 L 175.9 36.3 L 165.3 36.3 L 152.1 49.4 L 152.1 81 L 146.5 81 Z M 202.5 81 L 202.5 31.2 L 208 31.2 L 208 42.8 L 219.6 31.2 L 234.3 31.2 L 243 39.9 L 243 81 L 237.4 81 L 237.4 41.7 L 231.9 36.3 L 221.3 36.3 L 208.1 49.4 L 208.1 81 L 202.5 81 Z M 266.2 81 L 257.5 72.3 L 257.5 39.9 L 266.2 31.2 L 290.5 31.2 L 299.3 39.9 L 299.3 57.6 L 263.1 57.6 L 263.1 70.4 L 268.7 75.9 L 288 75.9 L 293.6 70.5 L 293.6 66.1 L 299.2 66.1 L 299.2 72.2 L 290.4 81 L 266.2 81 Z M 466.6 81 L 457.9 72.3 L 457.9 39.9 L 466.6 31.2 L 490.9 31.2 L 499.7 39.9 L 499.7 57.6 L 463.5 57.6 L 463.5 70.4 L 469.1 75.9 L 488.4 75.9 L 494 70.5 L 494 66.1 L 499.6 66.1 L 499.6 72.2 L 490.8 81 L 466.6 81 Z M 321.5 81 L 312.8 72.3 L 312.8 39.9 L 321.5 31.2 L 340.3 31.2 L 349.4 39.1 L 349.4 9.6 L 355 9.6 L 355 81 L 349.5 81 L 349.5 71.1 L 339.6 81 L 321.5 81 Z M 514.2 102.2 L 514.2 31.2 L 519.7 31.2 L 519.7 40.8 L 529.3 31.2 L 547.7 31.2 L 556.4 39.9 L 556.4 72.3 L 547.7 81 L 528.6 81 L 519.8 73.2 L 519.8 102.2 L 514.2 102.2 Z M 62 81 L 62 11 L 100.7 11 L 109.4 19.7 L 109.4 41.6 L 100.6 50.4 L 67.8 50.4 L 67.8 81 L 62 81 Z M 714.8 81 L 706.1 72.3 L 706.1 36.1 L 697.1 36.1 L 697.1 31.2 L 706.3 31.2 L 706.3 15 L 711.7 15 L 711.7 31.2 L 727.3 31.2 L 727.3 36.2 L 711.7 36.2 L 711.7 70.5 L 717.2 76 L 727.3 76 L 727.3 81 L 714.8 81 Z M 579.1 81 L 570.4 72.3 L 570.4 39.9 L 579.1 31.2 L 603.9 31.2 L 612.6 39.9 L 612.6 72.3 L 603.9 81 L 579.1 81 Z M 746 81 L 737.3 72.3 L 737.3 39.9 L 746 31.2 L 770.8 31.2 L 779.5 39.9 L 779.5 72.3 L 770.8 81 L 746 81 Z M 794.5 81 L 794.5 31.2 L 800 31.2 L 800 40.5 L 809.4 31.2 L 821.7 31.2 L 821.7 36.2 L 811 36.2 L 800.1 47 L 800.1 81 L 794.5 81 Z M 581.5 75.9 L 601.5 75.9 L 607 70.5 L 607 41.6 L 601.5 36.2 L 581.5 36.2 L 576 41.6 L 576 70.5 L 581.5 75.9 Z M 748.4 75.9 L 768.4 75.9 L 773.9 70.5 L 773.9 41.6 L 768.4 36.2 L 748.4 36.2 L 742.9 41.6 L 742.9 70.5 L 748.4 75.9 Z M 400.9 16.1 L 400.9 45.6 L 431.3 45.6 L 436.8 40.2 L 436.8 21.5 L 431.3 16.1 L 400.9 16.1 Z M 67.8 45.3 L 98.2 45.3 L 103.7 39.9 L 103.7 21.5 L 98.2 16.1 L 67.8 16.1 L 67.8 45.3 Z M 529.9 75.9 L 545.3 75.9 L 550.8 70.5 L 550.8 41.7 L 545.3 36.2 L 531 36.2 L 519.8 47.4 L 519.8 66.7 L 529.9 75.9 Z M 323.9 75.9 L 338.2 75.9 L 349.4 64.7 L 349.4 45.3 L 338.9 36.2 L 323.9 36.2 L 318.4 41.6 L 318.4 70.5 L 323.9 75.9 Z M 123.9 81 L 123.9 31.2 L 129.5 31.2 L 129.5 81 L 123.9 81 Z M 679 81 L 679 31.2 L 684.6 31.2 L 684.6 81 L 679 81 Z M 263.1 52.7 L 293.7 52.7 L 293.7 41.7 L 288.2 36.2 L 268.6 36.2 L 263.1 41.7 L 263.1 52.7 Z M 463.5 52.7 L 494.1 52.7 L 494.1 41.7 L 488.6 36.2 L 469 36.2 L 463.5 41.7 L 463.5 52.7 Z M 41.3 70.1 L 41.3 53.1 L 35.8 47.6 L 26.7 47.6 L 26.7 75.8 L 35.8 75.8 L 41.3 70.1 Z M 11.4 42.4 L 21.3 42.4 L 21.3 16.2 L 11.4 16.2 L 5.9 21.6 L 5.9 37 L 11.4 42.4 Z M 124.9 22 L 122.4 19.5 L 122.4 15.7 L 124.9 13.2 L 128.5 13.2 L 131 15.7 L 131 19.5 L 128.5 22 L 124.9 22 Z M 680 22 L 677.5 19.5 L 677.5 15.7 L 680 13.2 L 683.6 13.2 L 686.1 15.7 L 686.1 19.5 L 683.6 22 L 680 22 Z" vector-effect="non-scaling-stroke"/></g></svg>
	<!-- <svg class="fadeInFromLeft0" x="-132" y="0" width="449.4" height="30" viewBox="0 0 449.4 100" xmlns="http://www.w3.org/2000/svg"><g id="svgGroup" stroke-linecap="round" fill-rule="evenodd" font-size="9pt" stroke="#a0abb5" stroke-width="0.25mm" fill="#a0abb5" style="stroke:#a0abb5;stroke-width:0.25mm;fill:#a0abb5"><path d="M 399.5 81 L 388 31.2 L 393.8 31.2 L 402.9 74.5 L 403.2 74.5 L 416.1 31.2 L 421.7 31.2 L 433.4 74.5 L 433.7 74.5 L 443.6 31.2 L 449.4 31.2 L 437 81 L 430.8 81 L 419 37.9 L 418.8 37.9 L 405.8 81 L 399.5 81 Z M 38.3 42.4 L 47 51.1 L 47 72.1 L 38.1 81 L 26.7 81 L 26.7 92 L 21.3 92 L 21.3 81 L 8.7 81 L 0 72.3 L 0 67 L 5.7 67 L 5.7 70.3 L 11.1 75.8 L 21.3 75.8 L 21.3 47.6 L 8.9 47.6 L 0.2 39 L 0.2 19.7 L 8.9 11 L 21.3 11 L 21.3 0 L 26.7 0 L 26.7 11 L 37.5 11 L 46.2 19.7 L 46.2 25.1 L 40.5 25.1 L 40.5 21.6 L 35 16.2 L 26.7 16.2 L 26.7 42.4 L 38.3 42.4 Z M 181.9 81 L 173.2 72.3 L 173.2 39.9 L 181.9 31.2 L 206.2 31.2 L 215 39.9 L 215 57.6 L 178.8 57.6 L 178.8 70.4 L 184.4 75.9 L 203.7 75.9 L 209.3 70.5 L 209.3 66.1 L 214.9 66.1 L 214.9 72.2 L 206.1 81 L 181.9 81 Z M 345.4 81 L 336.7 72.3 L 336.7 39.9 L 345.4 31.2 L 369.7 31.2 L 378.5 39.9 L 378.5 57.6 L 342.3 57.6 L 342.3 70.4 L 347.9 75.9 L 367.2 75.9 L 372.8 70.5 L 372.8 66.1 L 378.4 66.1 L 378.4 72.2 L 369.6 81 L 345.4 81 Z M 140.3 81 L 122.3 31.2 L 128.2 31.2 L 143.6 75.6 L 144 75.6 L 159.4 31.2 L 165.2 31.2 L 147.4 81 L 140.3 81 Z M 279.2 81 L 261.2 31.2 L 267.1 31.2 L 282.5 75.6 L 282.9 75.6 L 298.3 31.2 L 304.1 31.2 L 286.3 81 L 279.2 81 Z M 71.5 81 L 61 70.5 L 61 21.5 L 71.5 11 L 102.3 11 L 112.8 21.5 L 112.8 70.5 L 102.3 81 L 71.5 81 Z M 74.1 75.8 L 99.7 75.8 L 107 68.5 L 107 23.4 L 99.7 16.2 L 74.1 16.2 L 66.8 23.4 L 66.8 68.5 L 74.1 75.8 Z M 229.5 81 L 229.5 31.2 L 235 31.2 L 235 40.5 L 244.4 31.2 L 256.7 31.2 L 256.7 36.2 L 246 36.2 L 235.1 47 L 235.1 81 L 229.5 81 Z M 315.1 81 L 315.1 31.2 L 320.7 31.2 L 320.7 81 L 315.1 81 Z M 178.8 52.7 L 209.4 52.7 L 209.4 41.7 L 203.9 36.2 L 184.3 36.2 L 178.8 41.7 L 178.8 52.7 Z M 342.3 52.7 L 372.9 52.7 L 372.9 41.7 L 367.4 36.2 L 347.8 36.2 L 342.3 41.7 L 342.3 52.7 Z M 41.3 70.1 L 41.3 53.1 L 35.8 47.6 L 26.7 47.6 L 26.7 75.8 L 35.8 75.8 L 41.3 70.1 Z M 11.4 42.4 L 21.3 42.4 L 21.3 16.2 L 11.4 16.2 L 5.9 21.6 L 5.9 37 L 11.4 42.4 Z M 316.1 22 L 313.6 19.5 L 313.6 15.7 L 316.1 13.2 L 319.7 13.2 L 322.2 15.7 L 322.2 19.5 L 319.7 22 L 316.1 22 Z" vector-effect="non-scaling-stroke"/></g></svg> -->
	<line class="fadeInFromLeft" x1="0" y1="30" x2="100%" y2="30" stroke="#c9d1d9" stroke-width="1.4px" />
</svg>