<svg xmlns="http://www.w3.org/2000/svg" xmlns:xlink="http://www.w3.org/1999/xlink">
    <svg x="-232" y="0" width="735.1" height="30" viewBox="0 0 735.1 100" xmlns="http://www.w3.org/2000/svg"><g id="svgGroup" stroke-linecap="round" fill-rule="evenodd" font-size="9pt" stroke="#a0abb5" stroke-width="0.25mm" fill="#a0abb5" style="stroke:#a0abb5;stroke-width:0.25mm;fill:#a0abb5"><path d="M 38.3 42.4 L 47 51.1 L 47 72.1 L 38.1 81 L 26.7 81 L 26.7 92 L 21.3 92 L 21.3 81 L 8.7 81 L 0 72.3 L 0 67 L 5.7 67 L 5.7 70.3 L 11.1 75.8 L 21.3 75.8 L 21.3 47.6 L 8.9 47.6 L 0.2 39 L 0.2 19.7 L 8.9 11 L 21.3 11 L 21.3 0 L 26.7 0 L 26.7 11 L 37.5 11 L 46.2 19.7 L 46.2 25.1 L 40.5 25.1 L 40.5 21.6 L 35 16.2 L 26.7 16.2 L 26.7 42.4 L 38.3 42.4 Z M 215.6 81 L 215.6 9.6 L 221.2 9.6 L 221.2 42.7 L 232.7 31.2 L 247.6 31.2 L 256.3 39.9 L 256.3 81 L 250.7 81 L 250.7 41.6 L 245.2 36.2 L 234.4 36.2 L 221.2 49.4 L 221.2 81 L 215.6 81 Z M 533.3 81 L 525.6 73.3 L 525.6 67.1 L 531.2 67.1 L 531.2 71.6 L 535.7 76 L 554.9 76 L 559.4 71.6 L 559.4 62.8 L 554.9 58.3 L 533.4 58.3 L 526 50.9 L 526 38.9 L 533.8 31.2 L 556.3 31.2 L 564 38.9 L 564 45.1 L 558.4 45.1 L 558.4 40.6 L 553.9 36.1 L 536.2 36.1 L 531.6 40.6 L 531.6 49 L 536.2 53.5 L 557.2 53.5 L 565 61.3 L 565 73.2 L 557.2 81 L 533.3 81 Z M 703.4 81 L 695.7 73.3 L 695.7 67.1 L 701.3 67.1 L 701.3 71.6 L 705.8 76 L 725 76 L 729.5 71.6 L 729.5 62.8 L 725 58.3 L 703.5 58.3 L 696.1 50.9 L 696.1 38.9 L 703.9 31.2 L 726.4 31.2 L 734.1 38.9 L 734.1 45.1 L 728.5 45.1 L 728.5 40.6 L 724 36.1 L 706.3 36.1 L 701.7 40.6 L 701.7 49 L 706.3 53.5 L 727.3 53.5 L 735.1 61.3 L 735.1 73.2 L 727.3 81 L 703.4 81 Z M 578.5 81 L 578.5 9.6 L 584.1 9.6 L 584.1 52.6 L 596.6 52.6 L 611.6 31.2 L 617.9 31.2 L 601.2 55.2 L 618.9 81 L 612.6 81 L 596.5 57.6 L 584.1 57.6 L 584.1 81 L 578.5 81 Z M 295.4 81 L 295.4 31.2 L 300.9 31.2 L 300.9 42.8 L 312.5 31.2 L 327.2 31.2 L 335.9 39.9 L 335.9 81 L 330.3 81 L 330.3 41.7 L 324.8 36.3 L 314.2 36.3 L 301 49.4 L 301 81 L 295.4 81 Z M 433.8 81 L 426.1 73.3 L 426.1 60.2 L 433.8 52.7 L 460.8 52.7 L 460.8 41.6 L 455.3 36.1 L 437.7 36.1 L 432.1 41.6 L 432.1 46.1 L 426.5 46.1 L 426.5 39.9 L 435.2 31.2 L 457.7 31.2 L 466.4 39.9 L 466.4 81 L 460.9 81 L 460.9 71.3 L 450.9 81 L 433.8 81 Z M 170.7 81 L 162 72.3 L 162 39.9 L 170.7 31.2 L 193.9 31.2 L 202.6 39.9 L 202.6 45 L 197 45 L 197 41.6 L 191.5 36.2 L 173.1 36.2 L 167.6 41.7 L 167.6 70.5 L 173.1 75.9 L 191.5 75.9 L 197 70.5 L 197 67.2 L 202.6 67.2 L 202.6 72.3 L 193.9 81 L 170.7 81 Z M 382.7 81 L 374 72.3 L 374 39.9 L 382.7 31.2 L 405.9 31.2 L 414.6 39.9 L 414.6 45 L 409 45 L 409 41.6 L 403.5 36.2 L 385.1 36.2 L 379.6 41.7 L 379.6 70.5 L 385.1 75.9 L 403.5 75.9 L 409 70.5 L 409 67.2 L 414.6 67.2 L 414.6 72.3 L 405.9 81 L 382.7 81 Z M 115.4 81 L 106.7 72.3 L 106.7 39.9 L 115.4 31.2 L 139.7 31.2 L 148.5 39.9 L 148.5 57.6 L 112.3 57.6 L 112.3 70.4 L 117.9 75.9 L 137.2 75.9 L 142.8 70.5 L 142.8 66.1 L 148.4 66.1 L 148.4 72.2 L 139.6 81 L 115.4 81 Z M 78.2 81 L 78.2 16.1 L 57 16.1 L 57 11 L 105.2 11 L 105.2 16.1 L 84 16.1 L 84 81 L 78.2 81 Z M 482.4 81 L 482.4 9.6 L 488 9.6 L 488 81 L 482.4 81 Z M 653.5 81 L 653.5 9.6 L 659.1 9.6 L 659.1 81 L 653.5 81 Z M 676.1 81 L 676.1 9.6 L 681.7 9.6 L 681.7 81 L 676.1 81 Z M 272.8 81 L 272.8 31.2 L 278.4 31.2 L 278.4 81 L 272.8 81 Z M 352.4 81 L 352.4 31.2 L 358 31.2 L 358 81 L 352.4 81 Z M 630.4 81 L 630.4 31.2 L 636 31.2 L 636 81 L 630.4 81 Z M 112.3 52.7 L 142.9 52.7 L 142.9 41.7 L 137.4 36.2 L 117.8 36.2 L 112.3 41.7 L 112.3 52.7 Z M 436.1 76 L 449.6 76 L 460.8 65 L 460.8 57.7 L 436.1 57.7 L 431.7 61.9 L 431.7 71.7 L 436.1 76 Z M 41.3 70.1 L 41.3 53.1 L 35.8 47.6 L 26.7 47.6 L 26.7 75.8 L 35.8 75.8 L 41.3 70.1 Z M 11.4 42.4 L 21.3 42.4 L 21.3 16.2 L 11.4 16.2 L 5.9 21.6 L 5.9 37 L 11.4 42.4 Z M 273.8 22 L 271.3 19.5 L 271.3 15.7 L 273.8 13.2 L 277.4 13.2 L 279.9 15.7 L 279.9 19.5 L 277.4 22 L 273.8 22 Z M 353.4 22 L 350.9 19.5 L 350.9 15.7 L 353.4 13.2 L 357 13.2 L 359.5 15.7 L 359.5 19.5 L 357 22 L 353.4 22 Z M 631.4 22 L 628.9 19.5 L 628.9 15.7 L 631.4 13.2 L 635 13.2 L 637.5 15.7 L 637.5 19.5 L 635 22 L 631.4 22 Z" vector-effect="non-scaling-stroke"/></g></svg>
	<line x1="20" y1="30" x2="100%" y2="30" stroke="#c9d1d9" stroke-width="1px" />
</svg>