<svg xmlns="http://www.w3.org/2000/svg" xmlns:xlink="http://www.w3.org/1999/xlink">
  <defs>
    <style>
      <![CDATA[@import url('https://fonts.googleapis.com/css2?family=WindSong&display=swap');]]>
      <![CDATA[@import url('https://fonts.googleapis.com/css2?family=Quattrocento&display=swap');]]>
      .title-line {
        fill: url(#gradient1);
      }
    </style>
    <linearGradient id="gradient1" x1="0%" y1="0%" x2="100%" y2="0%">
      <stop offset="0%" stop-color="#2af598" />
      <stop offset="100%" stop-color="#009efd" />
    </linearGradient>
  </defs>
  <rect x="20" y="89" width="100%" height="4px" fill="url(#gradient1)" />
  <!-- <image x="10" y="10" width="100" height="100" xlink:href="./kAIto47802.svg" /> -->
  <!-- <text x="-10" y="80" class="data-en">Profile</text> -->
  <!-- <text x="25" y="86" class="title">kAIto47802</text> -->
  <svg x="-60" y="-10" width="400.103" height="350" viewBox="0 0 400 400" xmlns="http://www.w3.org/2000/svg"><g transform="translate(0, 50) rotate(-5)" id="svgGroup" stroke-linecap="round" fill-rule="evenodd" font-size="9pt" stroke="#000000" stroke-width="0mm" fill="#ef91ab" style="stroke:#000000;stroke-width:0mm;fill:#ef91ab"><path d="M 18.046 43.1 Q 13.846 43.1 9.796 42.05 Q 5.746 41 3.046 38.6 A 8.864 8.864 0 0 1 0.116 32.959 A 11.697 11.697 0 0 1 0.046 32.3 Q -0.454 25.9 4.446 20.75 A 31.463 31.463 0 0 1 9.433 16.555 Q 12.002 14.787 15.188 13.203 A 63.53 63.53 0 0 1 18.446 11.7 A 94.835 94.835 0 0 1 27.681 8.329 Q 32.608 6.8 38.227 5.551 A 159.795 159.795 0 0 1 39.846 5.2 A 209.023 209.023 0 0 1 55.228 2.571 A 260.416 260.416 0 0 1 66.646 1.3 A 332.833 332.833 0 0 1 92.863 0.02 A 369.49 369.49 0 0 1 96.746 0 Q 103.846 0 111.046 0.3 Q 118.746 0.6 126.346 1.7 Q 133.946 2.8 140.146 4.7 A 53.945 53.945 0 0 1 144.369 6.176 Q 146.361 6.973 148.006 7.854 A 25.307 25.307 0 0 1 150.096 9.1 A 12.309 12.309 0 0 1 151.824 10.47 Q 152.701 11.317 153.197 12.225 A 5.087 5.087 0 0 1 153.846 14.7 A 4.985 4.985 0 0 1 153.359 16.781 Q 152.692 18.24 151.111 19.793 A 17.669 17.669 0 0 1 150.896 20 Q 148.232 22.529 142.508 25.303 A 78.016 78.016 0 0 1 141.246 25.9 A 63.084 63.084 0 0 1 134.488 28.556 A 80.619 80.619 0 0 1 128.596 30.25 Q 121.546 32 114.096 32.9 Q 106.646 33.8 99.746 34.1 A 43.102 43.102 0 0 1 99.17 34.12 Q 97.388 34.171 96.579 34.026 A 3.211 3.211 0 0 1 96.446 34 A 3.34 3.34 0 0 1 96.14 33.918 Q 95.546 33.725 95.546 33.4 Q 95.546 32.987 96.196 32.607 A 3.954 3.954 0 0 1 96.496 32.45 A 4.702 4.702 0 0 1 97.011 32.24 Q 97.643 32.028 98.146 32.1 Q 100.246 32.4 102.846 32.4 Q 107.946 32.4 114.096 31.35 Q 120.246 30.3 126.446 28.25 A 68.147 68.147 0 0 0 135.013 24.781 A 59.535 59.535 0 0 0 137.846 23.3 A 46.438 46.438 0 0 0 140.509 21.723 Q 143.042 20.098 144.49 18.588 A 11.516 11.516 0 0 0 144.846 18.2 A 12.864 12.864 0 0 0 145.85 16.907 Q 146.946 15.273 146.946 13.9 A 4.337 4.337 0 0 0 146.111 11.367 Q 145.676 10.746 145.014 10.166 A 9.128 9.128 0 0 0 144.696 9.9 A 16.08 16.08 0 0 0 142.495 8.436 Q 141.368 7.806 140.019 7.245 A 31.06 31.06 0 0 0 138.746 6.75 Q 135.046 5.4 130.546 4.45 Q 126.046 3.5 121.446 2.95 Q 116.846 2.4 112.946 2.2 Q 109.546 2 106.096 1.9 Q 102.646 1.8 99.146 1.8 Q 88.146 1.8 76.796 2.7 Q 65.446 3.6 54.746 5.35 Q 44.046 7.1 34.796 9.7 Q 25.546 12.3 18.496 15.8 A 47.25 47.25 0 0 0 13.325 18.762 Q 10.778 20.457 8.829 22.326 A 25.49 25.49 0 0 0 7.496 23.7 A 16.54 16.54 0 0 0 4.866 27.555 A 13.071 13.071 0 0 0 3.546 33.3 Q 3.546 35.7 4.538 37.268 A 5.251 5.251 0 0 0 5.096 38 A 8.434 8.434 0 0 0 8.138 40.106 A 10.487 10.487 0 0 0 9.096 40.45 A 23.395 23.395 0 0 0 14.078 41.387 A 25.759 25.759 0 0 0 14.246 41.4 A 75.639 75.639 0 0 0 17.157 41.562 A 59.184 59.184 0 0 0 19.246 41.6 A 3.683 3.683 0 0 1 20.138 41.704 A 3.134 3.134 0 0 1 20.696 41.9 A 2.181 2.181 0 0 1 20.95 42.036 Q 21.227 42.212 21.31 42.418 A 0.481 0.481 0 0 1 21.346 42.6 A 0.236 0.236 0 0 1 21.247 42.786 Q 21.065 42.935 20.546 43 A 7.499 7.499 0 0 1 19.458 43.098 A 8.331 8.331 0 0 1 19.296 43.1 L 18.046 43.1 Z M 151.446 37.4 L 150.746 38.4 Q 150.046 39.4 148.296 41.2 A 45.953 45.953 0 0 1 146.128 43.294 A 37.734 37.734 0 0 1 144.846 44.4 Q 140.546 48 135.796 51.2 A 70.237 70.237 0 0 1 129.917 54.77 A 58.285 58.285 0 0 1 126.446 56.5 A 31.194 31.194 0 0 1 122.536 57.993 Q 120.401 58.639 118.412 58.849 A 18.751 18.751 0 0 1 117.846 58.9 A 2.556 2.556 0 0 1 117.451 58.867 Q 117.258 58.837 117.045 58.778 A 4.555 4.555 0 0 1 116.946 58.75 Q 116.519 58.622 116.457 58.457 A 0.161 0.161 0 0 1 116.446 58.4 A 0.192 0.192 0 0 1 116.536 58.261 Q 116.807 58.043 117.903 57.779 A 19.999 19.999 0 0 1 118.246 57.7 A 22.555 22.555 0 0 0 121.452 56.791 Q 123.034 56.222 124.743 55.388 A 42.531 42.531 0 0 0 125.996 54.75 A 80.604 80.604 0 0 0 131.391 51.608 A 99.487 99.487 0 0 0 134.796 49.35 Q 139.346 46.2 143.546 42.8 Q 145.246 41.4 147.196 39.6 A 1068.764 1068.764 0 0 0 148.816 38.102 Q 149.556 37.416 150.216 36.802 A 612.125 612.125 0 0 0 150.646 36.4 A 5.659 5.659 0 0 1 149.599 33.69 A 7.333 7.333 0 0 1 149.546 32.8 A 9.167 9.167 0 0 1 150.13 29.632 A 11.786 11.786 0 0 1 150.796 28.15 Q 152.046 25.8 154.046 23.8 Q 156.046 21.8 158.296 20.55 Q 160.082 19.558 161.647 19.353 A 6.158 6.158 0 0 1 162.446 19.3 A 2.892 2.892 0 0 1 163.03 19.354 Q 164.046 19.564 164.046 20.6 A 1.753 1.753 0 0 1 163.445 21.935 A 2.541 2.541 0 0 1 163.246 22.1 A 15.875 15.875 0 0 0 162.841 22.462 Q 162.211 23.041 161.152 24.095 A 143.186 143.186 0 0 0 160.896 24.35 Q 159.246 26 157.346 28.1 A 72.252 72.252 0 0 0 155.179 30.604 A 58.448 58.448 0 0 0 153.946 32.15 A 23.914 23.914 0 0 0 153.265 33.078 Q 152.346 34.4 152.046 35.3 A 4.167 4.167 0 0 0 152.854 36.302 A 4.967 4.967 0 0 0 153.146 36.55 A 1.849 1.849 0 0 0 153.66 36.822 Q 154.424 37.1 155.846 37.1 A 9.926 9.926 0 0 0 158.128 36.823 A 12.447 12.447 0 0 0 159.396 36.45 A 77.478 77.478 0 0 0 161.095 35.832 Q 161.949 35.509 162.696 35.2 A 20.219 20.219 0 0 1 163.285 34.966 Q 164.092 34.662 164.498 34.61 A 1.193 1.193 0 0 1 164.646 34.6 A 4.1 4.1 0 0 1 166.023 34.848 A 5.546 5.546 0 0 1 166.896 35.25 A 2.833 2.833 0 0 1 167.478 35.676 A 1.778 1.778 0 0 1 168.046 37 A 3.275 3.275 0 0 1 167.978 37.691 Q 167.884 38.126 167.661 38.451 A 1.81 1.81 0 0 1 167.346 38.8 Q 166.121 39.719 164.222 41.224 A 339.475 339.475 0 0 0 162.996 42.2 Q 160.246 44.4 157.846 46.9 Q 155.346 49.4 154.146 51.5 A 13.579 13.579 0 0 0 153.566 52.626 Q 152.946 53.994 152.946 55 Q 152.946 56.6 154.346 57.5 A 4.989 4.989 0 0 0 155.665 58.083 Q 156.762 58.4 158.246 58.4 A 17.809 17.809 0 0 0 161.083 58.152 Q 163.994 57.68 167.717 56.311 A 57.134 57.134 0 0 0 167.746 56.3 A 7.999 7.999 0 0 0 168.96 55.84 A 8.977 8.977 0 0 0 169.146 55.75 Q 169.846 55.4 170.546 55.1 Q 176.346 52.5 181.546 48.7 Q 186.746 44.9 191.846 40.6 A 0.963 0.963 0 0 1 192.071 40.519 A 0.817 0.817 0 0 1 192.246 40.5 A 0.432 0.432 0 0 1 192.365 40.515 Q 192.498 40.553 192.534 40.689 A 0.442 0.442 0 0 1 192.546 40.8 Q 192.546 41.054 192.332 41.451 A 3.862 3.862 0 0 1 192.246 41.6 Q 191.646 42.4 189.346 44.55 A 62.599 62.599 0 0 1 187.467 46.233 Q 186.407 47.146 185.18 48.135 A 119.603 119.603 0 0 1 183.646 49.35 Q 180.246 52 176.296 54.45 A 42.07 42.07 0 0 1 170.592 57.429 A 36.794 36.794 0 0 1 168.346 58.3 A 21.721 21.721 0 0 1 166.952 58.736 Q 166.183 58.95 165.291 59.15 A 45.901 45.901 0 0 1 164.096 59.4 Q 161.546 59.9 158.946 59.9 Q 155.646 59.9 153.096 58.65 Q 150.546 57.4 150.546 54 Q 150.546 51.2 151.896 48.65 Q 153.246 46.1 155.146 44 Q 157.046 41.9 158.746 40.35 Q 160.312 38.923 161.029 38.216 A 21.521 21.521 0 0 0 161.146 38.1 A 15.042 15.042 0 0 1 158.868 38.818 A 11.018 11.018 0 0 1 156.446 39.1 Q 155.046 39.1 153.746 38.7 Q 152.446 38.3 151.446 37.4 Z M 253.446 26.7 L 247.046 33.3 A 110.494 110.494 0 0 0 251.337 33.642 A 129.482 129.482 0 0 0 253.396 33.75 Q 256.746 33.9 260.046 33.9 Q 262.746 33.9 265.396 33.8 Q 268.046 33.7 270.346 33.4 L 270.546 33.4 Q 270.746 33.4 270.746 33.6 A 0.692 0.692 0 0 1 270.414 34.207 Q 270.231 34.329 269.946 34.4 Q 267.368 34.486 264.125 34.978 A 75.178 75.178 0 0 0 263.046 35.15 Q 259.146 35.8 255.096 36.45 A 61.951 61.951 0 0 1 249.693 37.084 A 53.131 53.131 0 0 1 247.346 37.2 A 6.208 6.208 0 0 1 249.775 39.642 A 8.385 8.385 0 0 1 250.296 40.75 A 13.66 13.66 0 0 1 251.061 43.721 A 18.527 18.527 0 0 1 251.246 46.4 A 29.992 29.992 0 0 1 250.895 50.849 Q 250.571 53.004 249.949 55.355 A 51.552 51.552 0 0 1 249.646 56.45 A 61.739 61.739 0 0 1 245.928 66.124 A 68.718 68.718 0 0 1 245.246 67.5 Q 242.446 73 238.846 77.65 A 39.045 39.045 0 0 1 234.866 82.083 A 30.871 30.871 0 0 1 231.096 85.15 A 17.716 17.716 0 0 1 227.586 87.047 A 13.084 13.084 0 0 1 222.746 88 A 11.923 11.923 0 0 1 220.785 87.85 Q 219.764 87.68 218.967 87.314 A 4.634 4.634 0 0 1 217.246 86 Q 215.646 84 215.646 80.9 A 20.481 20.481 0 0 1 215.914 77.678 A 27.604 27.604 0 0 1 216.596 74.6 Q 217.546 71.2 219.046 67.75 A 102.111 102.111 0 0 1 221.353 62.8 A 89.411 89.411 0 0 1 222.146 61.25 A 114.497 114.497 0 0 1 223.304 59.096 Q 223.885 58.044 224.42 57.137 A 56.955 56.955 0 0 1 225.046 56.1 A 129.126 129.126 0 0 1 231.335 46.713 A 115.733 115.733 0 0 1 232.546 45.1 Q 236.446 40 240.146 35.7 A 2.227 2.227 0 0 1 239.931 35.231 A 1.741 1.741 0 0 1 239.846 34.7 A 2.028 2.028 0 0 1 240.482 33.211 A 2.699 2.699 0 0 1 240.546 33.15 A 1.843 1.843 0 0 1 241.827 32.653 Q 242.074 32.651 242.346 32.7 A 0.426 0.426 0 0 1 242.499 32.729 A 0.523 0.523 0 0 1 242.546 32.75 A 0.482 0.482 0 0 0 242.659 32.79 A 0.408 0.408 0 0 0 242.746 32.8 Q 245.946 29.3 248.846 26.45 A 244.709 244.709 0 0 1 250.923 24.432 Q 251.747 23.641 252.503 22.933 A 132.1 132.1 0 0 1 253.946 21.6 Q 257.467 18.471 260.031 17.015 A 17.353 17.353 0 0 1 260.146 16.95 Q 262.746 15.5 264.346 15.5 Q 266.046 15.5 266.646 16.8 Q 266.946 17.4 266.946 18.1 Q 266.946 19.4 266.196 20.4 A 9.481 9.481 0 0 1 266.009 20.642 Q 265.433 21.36 265.346 21.1 A 1.683 1.683 0 0 0 265.093 20.55 Q 264.797 20.142 264.254 20.037 A 2.145 2.145 0 0 0 263.846 20 A 4.492 4.492 0 0 0 262.638 20.186 Q 261.132 20.609 259.046 22 Q 256.046 24 253.446 26.7 Z M 182.896 58.5 A 4.505 4.505 0 0 0 184.432 59.7 Q 185.861 60.4 188.046 60.4 Q 190.124 60.4 192.52 59.854 A 31.281 31.281 0 0 0 195.946 58.85 Q 200.346 57.3 204.596 54.55 A 38.919 38.919 0 0 0 204.861 54.377 A 34.981 34.981 0 0 0 211.996 48.2 A 21.54 21.54 0 0 0 213.598 46.135 A 17.234 17.234 0 0 0 216.146 40.5 Q 218.246 40.5 220.046 40.45 A 88.89 88.89 0 0 0 221.122 40.414 Q 222.253 40.369 223.146 40.3 A 56.859 56.859 0 0 0 224.389 40.237 A 50.883 50.883 0 0 0 232.696 39.05 A 80.028 80.028 0 0 0 234.163 38.698 Q 236.449 38.124 238.023 37.566 A 17.987 17.987 0 0 0 239.446 37 A 9.074 9.074 0 0 0 239.563 36.948 Q 241.046 36.274 241.046 35.6 A 0.421 0.421 0 0 0 241.045 35.573 Q 241.028 35.3 240.646 35.3 A 1.006 1.006 0 0 0 240.475 35.316 Q 240.107 35.38 239.546 35.7 A 9.111 9.111 0 0 1 239.248 35.842 Q 237.867 36.471 235.396 37.1 A 48.215 48.215 0 0 1 233.079 37.627 A 59.985 59.985 0 0 1 229.396 38.25 Q 226.146 38.7 223.146 38.7 L 219.946 38.7 Q 218.246 38.7 216.546 38.6 A 6.997 6.997 0 0 0 216.57 38.449 Q 216.668 37.767 216.64 37.022 A 9.855 9.855 0 0 0 216.546 36 Q 216.146 32.8 213.746 31.5 A 10.368 10.368 0 0 0 211.332 30.564 A 12.588 12.588 0 0 0 208.246 30.2 A 19.518 19.518 0 0 0 206.926 30.247 Q 204.679 30.399 201.846 31.05 A 24.079 24.079 0 0 0 198.59 32.052 A 29.955 29.955 0 0 0 194.346 34.1 Q 193.946 33.9 193.596 33.6 Q 193.246 33.3 192.846 33 Q 192.446 32.7 191.946 32.7 Q 191.446 32.7 190.996 33.15 Q 190.546 33.6 190.546 34.3 A 1.804 1.804 0 0 0 190.609 34.762 Q 190.679 35.029 190.83 35.31 A 3.875 3.875 0 0 0 191.146 35.8 A 4.363 4.363 0 0 0 191.588 36.298 Q 191.876 36.58 192.252 36.863 A 10.385 10.385 0 0 0 193.046 37.4 A 12.155 12.155 0 0 0 194.302 37.995 Q 195.994 38.687 198.346 39.15 A 49.175 49.175 0 0 0 201.008 39.597 A 60.442 60.442 0 0 0 205.496 40.05 Q 209.346 40.3 213.046 40.4 A 21.671 21.671 0 0 1 212.219 41.9 A 26.063 26.063 0 0 1 210.496 44.4 A 28.512 28.512 0 0 1 209.513 45.601 A 24.098 24.098 0 0 1 207.246 47.9 Q 204.446 50.5 201.196 52.8 A 53.402 53.402 0 0 1 198.215 54.769 A 40.045 40.045 0 0 1 194.996 56.55 Q 192.046 58 190.046 58.4 A 33.737 33.737 0 0 1 189.852 58.427 Q 189.566 58.466 189.306 58.497 A 20.106 20.106 0 0 1 188.796 58.55 A 12.957 12.957 0 0 1 188.508 58.573 A 11.163 11.163 0 0 1 187.746 58.6 A 9.716 9.716 0 0 1 187.349 58.592 Q 185.664 58.523 184.946 57.85 A 2.435 2.435 0 0 1 184.289 56.832 A 2.927 2.927 0 0 1 184.146 55.9 A 5.194 5.194 0 0 1 184.201 55.159 Q 184.375 53.956 185.096 52.55 A 27.928 27.928 0 0 1 185.705 51.428 A 23.578 23.578 0 0 1 187.146 49.2 A 51.25 51.25 0 0 1 187.387 48.94 Q 188.441 47.805 190.096 46.15 A 26.547 26.547 0 0 1 191.715 44.656 A 20.502 20.502 0 0 1 193.796 43.1 A 8.639 8.639 0 0 1 194.164 42.874 Q 195.245 42.247 195.965 42.305 A 1.203 1.203 0 0 1 196.546 42.5 A 3.059 3.059 0 0 0 196.636 42.562 Q 197.219 42.947 197.199 42.49 A 0.834 0.834 0 0 0 197.196 42.45 A 2.93 2.93 0 0 0 197.178 42.292 Q 197.116 41.87 196.946 41.7 Q 196.946 41.5 195.996 40.95 Q 195.046 40.4 193.996 39.95 A 10.157 10.157 0 0 0 193.94 39.926 Q 192.935 39.503 192.546 39.6 A 6.722 6.722 0 0 0 191.611 39.851 Q 190.722 40.158 189.815 40.728 A 13.002 13.002 0 0 0 188.246 41.9 Q 186.046 43.8 184.346 46.3 Q 182.646 48.8 181.846 51.2 Q 181.546 51.9 181.446 52.65 A 10.86 10.86 0 0 0 181.44 52.697 A 11.751 11.751 0 0 0 181.346 54.2 Q 181.346 56.6 182.896 58.5 Z M 309.08 59.921 A 17.313 17.313 0 0 0 313.246 60.4 Q 316.546 60.4 320.146 59.55 Q 323.746 58.7 327.046 57.2 Q 332.546 54.6 337.496 50.85 Q 342.446 47.1 346.646 42.9 Q 347.446 42.1 347.446 41.2 A 0.673 0.673 0 0 0 347.445 41.158 Q 347.435 41 347.346 41 A 0.233 0.233 0 0 0 347.306 41.004 Q 347.155 41.03 346.909 41.247 A 3.516 3.516 0 0 0 346.746 41.4 A 25.963 25.963 0 0 1 345.999 42.064 Q 344.631 43.239 342.296 45 Q 339.246 47.3 335.246 49.85 Q 331.246 52.4 326.946 54.6 Q 323.246 56.4 319.596 57.65 A 29.665 29.665 0 0 1 319.012 57.843 Q 317.447 58.343 316.005 58.607 A 17.04 17.04 0 0 1 312.946 58.9 A 10.406 10.406 0 0 1 311.1 58.744 A 6.43 6.43 0 0 1 306.496 55.65 Q 304.546 52.4 304.546 48.4 A 19.527 19.527 0 0 1 304.638 46.485 A 15.933 15.933 0 0 1 305.646 42.2 A 17.863 17.863 0 0 0 306.306 41.894 Q 307.818 41.157 310.246 39.7 Q 311.934 38.688 313.859 37.422 A 154.411 154.411 0 0 0 316.996 35.3 A 110.745 110.745 0 0 0 318.169 34.475 A 123.363 123.363 0 0 0 324.546 29.6 Q 328.346 26.5 331.546 23.1 A 44.473 44.473 0 0 0 334.117 20.125 A 34.452 34.452 0 0 0 336.746 16.3 A 19.248 19.248 0 0 0 336.974 15.903 Q 337.746 14.515 338.182 13.178 A 10.868 10.868 0 0 0 338.746 9.8 A 3.82 3.82 0 0 0 338.741 9.597 A 2.871 2.871 0 0 0 337.896 7.65 A 2.087 2.087 0 0 0 337.774 7.537 Q 337.156 7.01 336.028 6.86 A 7.454 7.454 0 0 0 335.046 6.8 Q 333.035 6.8 330.857 7.561 A 19.17 19.17 0 0 0 327.996 8.85 Q 324.246 10.9 320.446 14.4 A 58.232 58.232 0 0 0 319.035 15.744 A 64.751 64.751 0 0 0 313.246 22.3 Q 309.846 26.7 307.146 31.35 A 67.156 67.156 0 0 0 304.994 35.352 A 52.884 52.884 0 0 0 302.846 40.3 A 2.239 2.239 0 0 1 302.602 40.744 Q 302.034 41.561 300.546 42.5 A 2.688 2.688 0 0 0 300.455 42.596 Q 300.146 42.936 300.146 43.2 Q 300.146 43.679 300.657 43.776 A 1.568 1.568 0 0 0 300.946 43.8 Q 301.221 43.8 301.402 43.753 A 0.746 0.746 0 0 0 301.546 43.7 Q 301.346 44.9 301.146 46.6 A 47.149 47.149 0 0 0 301.109 46.922 Q 301.003 47.887 300.966 48.607 A 13.638 13.638 0 0 0 300.946 49.3 A 18.783 18.783 0 0 0 301.042 50.938 Q 301.22 52.646 301.72 54.019 A 7.9 7.9 0 0 0 304.596 57.9 A 13.224 13.224 0 0 0 309.08 59.921 Z M 355.846 58.8 Q 353.646 58.8 351.496 58.15 A 12.027 12.027 0 0 1 347.925 56.362 A 13.906 13.906 0 0 1 347.446 56 A 9.905 9.905 0 0 1 345.435 53.82 A 7.653 7.653 0 0 1 344.146 49.5 A 11.183 11.183 0 0 1 345.02 45.244 A 15.474 15.474 0 0 1 346.396 42.65 Q 348.646 39.2 351.946 36.2 Q 355.246 33.2 358.446 31.4 A 6.4 6.4 0 0 1 359.533 30.854 Q 360.069 30.643 360.701 30.484 A 12.438 12.438 0 0 1 361.296 30.35 A 18.04 18.04 0 0 1 363.58 30.038 A 15.346 15.346 0 0 1 364.646 30 L 365.796 30 A 2.545 2.545 0 0 1 366.249 30.038 A 1.836 1.836 0 0 1 366.746 30.2 Q 368.505 30.692 369.595 31.531 A 4.88 4.88 0 0 1 370.396 32.3 A 5.083 5.083 0 0 1 371.306 33.909 A 4.647 4.647 0 0 1 371.546 35.4 A 6.473 6.473 0 0 1 371.108 37.812 A 5.987 5.987 0 0 1 369.946 39.65 A 11.955 11.955 0 0 1 367.345 41.773 A 14.872 14.872 0 0 1 365.896 42.55 Q 363.446 43.7 360.796 44.4 Q 358.146 45.1 355.896 45.35 Q 354.113 45.548 353.053 45.589 A 13.165 13.165 0 0 1 352.546 45.6 Q 350.246 45.6 349.146 45.3 A 19.578 19.578 0 0 0 348.074 47.097 Q 347.587 48.03 347.291 48.896 A 9.018 9.018 0 0 0 346.946 50.2 Q 346.846 50.5 346.846 50.85 L 346.846 51.5 A 4.825 4.825 0 0 0 348.139 54.794 A 6.793 6.793 0 0 0 348.696 55.35 A 5.215 5.215 0 0 0 350.281 56.289 Q 351.807 56.888 354.14 56.982 A 22.372 22.372 0 0 0 355.046 57 A 22.604 22.604 0 0 0 360.005 56.299 A 29.74 29.74 0 0 0 363.696 55.1 A 51.57 51.57 0 0 0 371.303 51.315 A 58.288 58.288 0 0 0 372.696 50.45 Q 377.146 47.6 381.146 44.45 Q 385.146 41.3 388.246 38.6 A 0.675 0.675 0 0 1 388.727 38.4 A 0.886 0.886 0 0 1 388.746 38.4 A 0.591 0.591 0 0 1 388.751 38.4 Q 388.999 38.402 389.074 38.612 A 0.513 0.513 0 0 1 389.096 38.7 Q 389.146 39 388.846 39.5 A 11.427 11.427 0 0 1 388.027 40.54 Q 387.082 41.62 385.57 42.947 A 46.409 46.409 0 0 1 385.046 43.4 Q 382.346 45.7 379.196 48.1 Q 376.046 50.5 373.396 52.3 A 133.153 133.153 0 0 1 372.186 53.113 Q 370.726 54.081 369.908 54.553 A 12.879 12.879 0 0 1 369.646 54.7 A 43.831 43.831 0 0 1 365.238 56.735 A 52.102 52.102 0 0 1 363.046 57.55 Q 359.446 58.8 355.846 58.8 Z M 268.775 59.169 A 12.644 12.644 0 0 0 271.246 59.4 A 23.777 23.777 0 0 0 273.476 59.294 A 27.858 27.858 0 0 0 277.896 58.5 A 81.085 81.085 0 0 0 278.549 58.327 Q 281.53 57.523 283.246 56.8 Q 286.846 55.2 290.296 52.95 A 85.997 85.997 0 0 0 292.799 51.255 A 72.112 72.112 0 0 0 296.596 48.4 A 98.506 98.506 0 0 0 297.88 47.347 Q 298.906 46.489 299.788 45.701 A 50.663 50.663 0 0 0 301.346 44.25 Q 302.786 42.848 303.479 42.049 A 8.316 8.316 0 0 0 303.846 41.6 A 3.625 3.625 0 0 0 303.985 41.415 Q 304.15 41.179 304.211 40.996 A 0.628 0.628 0 0 0 304.246 40.8 A 0.442 0.442 0 0 0 304.234 40.689 Q 304.198 40.553 304.065 40.515 A 0.432 0.432 0 0 0 303.946 40.5 A 1.684 1.684 0 0 0 303.868 40.502 Q 303.754 40.507 303.656 40.528 A 0.881 0.881 0 0 0 303.446 40.6 Q 298.946 44.2 294.746 47.75 Q 290.546 51.3 285.646 53.8 A 40.575 40.575 0 0 1 284.864 54.193 A 44.664 44.664 0 0 1 278.996 56.55 Q 275.446 57.7 271.746 57.7 A 13.501 13.501 0 0 1 271.345 57.694 Q 269.595 57.642 268.592 57.125 A 2.331 2.331 0 0 1 267.246 54.9 Q 267.246 52.909 269.415 49.688 A 34.983 34.983 0 0 1 270.946 47.6 A 36.749 36.749 0 0 1 273.008 45.245 A 48.014 48.014 0 0 1 275.796 42.55 A 142.399 142.399 0 0 1 277.064 41.429 Q 279.021 39.719 280.246 38.8 A 3.246 3.246 0 0 0 280.331 38.734 Q 280.513 38.588 280.696 38.399 A 5.584 5.584 0 0 0 281.046 38 A 2.544 2.544 0 0 0 281.088 37.946 Q 281.231 37.758 281.316 37.57 A 1.364 1.364 0 0 0 281.446 37 A 1.219 1.219 0 0 0 281.218 36.278 Q 280.934 35.877 280.296 35.6 A 6.569 6.569 0 0 0 279.582 35.336 A 5.278 5.278 0 0 0 278.046 35.1 A 2.554 2.554 0 0 0 277.975 35.101 Q 277.726 35.108 277.452 35.163 A 4.296 4.296 0 0 0 276.946 35.3 A 12.516 12.516 0 0 0 276.785 35.372 Q 275.84 35.798 275.088 36.329 A 7.267 7.267 0 0 0 273.446 37.9 Q 272.246 39.5 273.146 39.7 A 17.543 17.543 0 0 0 272.94 39.88 Q 272.047 40.669 270.89 41.894 A 66.263 66.263 0 0 0 269.646 43.25 A 28.391 28.391 0 0 0 269.386 43.546 A 30.581 30.581 0 0 0 265.896 48.5 A 14.145 14.145 0 0 0 265.601 49.046 A 11.825 11.825 0 0 0 264.246 54.5 Q 264.246 57.3 266.346 58.35 A 9.592 9.592 0 0 0 268.775 59.169 Z M 223.246 86.7 Q 226.646 86.7 230.196 83.75 Q 233.746 80.8 236.996 76.05 A 69.197 69.197 0 0 0 241.848 67.737 A 78.098 78.098 0 0 0 242.846 65.65 A 75.818 75.818 0 0 0 246.016 57.631 A 65.82 65.82 0 0 0 246.946 54.55 Q 248.196 50.01 248.404 46.338 A 25.351 25.351 0 0 0 248.446 44.9 Q 248.446 42.501 247.912 40.748 A 8.502 8.502 0 0 0 247.496 39.65 A 4.463 4.463 0 0 0 246.472 38.214 Q 245.618 37.431 244.346 37.2 A 0.595 0.595 0 0 1 244.282 37.196 Q 244.19 37.186 244.046 37.15 Q 243.846 37.1 243.646 37.1 Q 239.946 41.4 235.846 46.85 A 135.642 135.642 0 0 0 230.76 54.112 A 163.234 163.234 0 0 0 227.746 58.9 A 74.881 74.881 0 0 0 226.415 61.19 Q 225.692 62.481 224.909 63.979 A 153.91 153.91 0 0 0 223.946 65.85 Q 221.846 70 220.296 74.25 A 30.849 30.849 0 0 0 219.356 77.275 Q 218.746 79.694 218.746 81.7 Q 218.746 83.621 219.509 84.932 A 4.684 4.684 0 0 0 219.746 85.3 A 3.052 3.052 0 0 0 221.218 86.387 Q 222.065 86.7 223.246 86.7 Z M 81.386 60.398 A 4.206 4.206 0 0 0 82.846 60.8 A 1.903 1.903 0 0 0 82.932 60.808 Q 83.574 60.85 83.71 60.386 A 1.018 1.018 0 0 0 83.746 60.1 Q 83.746 59.892 83.702 59.728 A 0.742 0.742 0 0 0 83.246 59.2 Q 82.246 58.7 81.946 57.6 A 9.143 9.143 0 0 1 81.775 56.856 A 7.458 7.458 0 0 1 81.646 55.5 Q 81.646 53.638 82.526 51.135 A 28.515 28.515 0 0 1 83.496 48.75 Q 85.346 44.7 88.346 40.15 Q 91.346 35.6 94.946 31.3 A 115.288 115.288 0 0 1 98.068 27.719 A 91.582 91.582 0 0 1 101.996 23.65 A 47.402 47.402 0 0 1 104.18 21.651 Q 106.332 19.808 108.146 18.8 L 108.646 18.3 A 0.739 0.739 0 0 0 108.678 18.266 Q 108.946 17.962 108.946 17.3 A 1.811 1.811 0 0 0 108.706 16.422 Q 108.543 16.127 108.272 15.831 A 5.131 5.131 0 0 0 107.696 15.3 A 6.44 6.44 0 0 0 107.176 14.923 Q 106.762 14.655 106.365 14.502 A 2.828 2.828 0 0 0 105.346 14.3 A 3.928 3.928 0 0 0 104.728 14.35 Q 102.838 14.651 100.396 16.75 Q 97.546 19.2 94.446 23.25 A 137.406 137.406 0 0 0 92.703 25.58 A 159.483 159.483 0 0 0 88.246 32 Q 85.646 35.9 83.496 40.1 Q 81.346 44.3 80.096 48.05 A 31.593 31.593 0 0 0 79.602 49.673 Q 79.241 50.986 79.053 52.168 A 15.491 15.491 0 0 0 78.846 54.6 A 13.125 13.125 0 0 0 78.879 55.538 Q 78.945 56.464 79.148 57.247 A 6.312 6.312 0 0 0 79.846 58.95 A 3.715 3.715 0 0 0 81.386 60.398 Z M 305.946 40.1 A 23.739 23.739 0 0 0 306.272 39.91 Q 307.115 39.409 309.146 38.15 Q 311.646 36.6 315.096 34.1 A 158.229 158.229 0 0 0 319.958 30.426 A 186.837 186.837 0 0 0 322.246 28.6 Q 325.946 25.6 329.196 22.3 Q 332.446 19 334.446 15.75 Q 335.996 13.232 336.345 10.984 A 8.362 8.362 0 0 0 336.446 9.7 A 1.296 1.296 0 0 0 336.402 9.344 Q 336.287 8.944 335.88 8.838 A 1.326 1.326 0 0 0 335.546 8.8 Q 334.561 8.8 332.967 9.677 A 16.44 16.44 0 0 0 332.246 10.1 A 35.729 35.729 0 0 0 330.201 11.473 Q 328.998 12.338 327.696 13.4 Q 325.246 15.4 322.946 17.5 A 95.88 95.88 0 0 0 321.334 19.005 Q 320.553 19.752 319.893 20.423 A 45.903 45.903 0 0 0 319.146 21.2 Q 315.746 24.9 312.096 29.75 Q 308.446 34.6 305.946 40.1 Z M 351.346 44.4 A 15.277 15.277 0 0 0 352.168 44.377 Q 352.631 44.352 353.146 44.3 Q 354.146 44.2 355.246 44 Q 356.254 43.798 357.623 43.394 A 53.847 53.847 0 0 0 359.046 42.95 A 31.255 31.255 0 0 0 362.671 41.503 A 35.721 35.721 0 0 0 363.696 41 A 16.315 16.315 0 0 0 366.103 39.508 A 13.266 13.266 0 0 0 367.646 38.15 Q 369.246 36.5 369.246 34.5 A 2.12 2.12 0 0 0 369.092 33.658 Q 368.637 32.6 366.846 32.6 Q 365.547 32.6 363.875 33.207 A 17.697 17.697 0 0 0 362.246 33.9 Q 359.582 35.189 356.66 37.475 A 46.417 46.417 0 0 0 355.696 38.25 A 37.727 37.727 0 0 0 351.62 42.141 A 31.98 31.98 0 0 0 349.846 44.3 Q 350.146 44.4 350.546 44.4 L 351.346 44.4 Z M 213.846 38.5 Q 214.246 37.4 214.246 36.2 A 3.779 3.779 0 0 0 213.065 33.414 A 4.892 4.892 0 0 0 212.946 33.3 A 3.807 3.807 0 0 0 211.828 32.605 Q 210.546 32.066 208.446 32 A 26.124 26.124 0 0 0 202.53 32.657 A 24.232 24.232 0 0 0 201.946 32.8 A 26.093 26.093 0 0 0 197.578 34.338 A 23.283 23.283 0 0 0 196.246 35 A 33.454 33.454 0 0 0 201.849 36.912 A 40.016 40.016 0 0 0 204.646 37.5 Q 209.246 38.3 213.846 38.5 Z M 283.046 26.3 A 4.323 4.323 0 0 0 283.047 26.372 Q 283.079 28.3 284.846 28.3 A 2.566 2.566 0 0 0 285.251 28.268 Q 285.699 28.196 286.156 27.968 A 4.674 4.674 0 0 0 286.896 27.5 A 4.621 4.621 0 0 0 287.415 27.04 A 4.801 4.801 0 0 0 288.446 25.4 A 2.419 2.419 0 0 1 288.711 24.985 Q 288.942 24.693 289.279 24.431 A 4.982 4.982 0 0 1 289.946 24 A 22.473 22.473 0 0 1 290.824 23.546 A 17.914 17.914 0 0 1 292.046 23 A 11.521 11.521 0 0 0 292.157 22.955 Q 293.046 22.589 293.046 22.4 A 0.043 0.043 0 0 0 293.015 22.366 Q 292.879 22.3 292.146 22.3 Q 291.046 22.3 289.096 22.55 A 22.56 22.56 0 0 0 288.137 22.694 A 19.46 19.46 0 0 0 285.446 23.35 A 7.825 7.825 0 0 0 284.869 23.561 Q 283.691 24.047 283.446 24.7 A 4.181 4.181 0 0 0 283.281 25.075 A 3.405 3.405 0 0 0 283.046 26.3 Z" vector-effect="non-scaling-stroke"/></g></svg>

  <svg x="-110" y="55" width="511.4" height="2rem" viewBox="0 0 511.4 80" xmlns="http://www.w3.org/2000/svg"><g id="svgGroup" stroke-linecap="round" fill-rule="evenodd" font-size="9pt" stroke="#4497d6" stroke-width="0.25mm" fill="#4497d6" style="stroke:#4497d6;stroke-width:0.25mm;fill:#4497d6"><path d="M 0.2 2.6 L 0.2 1.3 L 0.6 0.9 L 2.4 0.9 Q 4.015 0.9 6.443 0.855 A 403.277 403.277 0 0 0 6.7 0.85 Q 8.691 0.812 10.271 0.627 A 23.367 23.367 0 0 0 11.2 0.5 L 14.7 0 L 15.3 0.9 Q 15.103 1.293 15.003 2.315 A 13.598 13.598 0 0 0 15 2.35 Q 14.9 3.4 14.8 4.6 A 28.686 28.686 0 0 0 14.706 6.344 A 25.038 25.038 0 0 0 14.7 6.9 L 14.7 8.6 Q 14.7 10.2 14.65 11.6 Q 14.6 13 14.55 14.9 Q 14.5 16.8 14.45 19.5 Q 14.4 22.2 14.4 26.4 L 14.4 50.2 L 26.3 39.2 Q 26.5 39 27.25 38.3 Q 28 37.6 28.8 36.85 Q 29.6 36.1 30.35 35.35 L 31.4 34.3 A 5.356 5.356 0 0 0 31.825 33.768 Q 32.252 33.151 32.295 32.62 A 1.466 1.466 0 0 0 32.3 32.5 A 1.512 1.512 0 0 0 31.6 31.203 Q 31.344 31.024 30.994 30.887 A 4.222 4.222 0 0 0 30.75 30.8 A 17.802 17.802 0 0 0 28.264 30.186 A 16.023 16.023 0 0 0 27.7 30.1 L 27.3 29.7 L 27.3 28.5 L 27.7 28.1 L 31.5 28.5 Q 33.4 28.7 35.4 28.7 L 38.2 28.7 Q 40.1 28.7 42.05 28.5 Q 44 28.3 46 28.1 L 46.3 28.5 L 46.3 29.9 L 45.8 30.4 A 87.471 87.471 0 0 1 44.994 30.557 Q 44.634 30.625 44.236 30.699 A 167.332 167.332 0 0 1 43.4 30.85 A 7.143 7.143 0 0 0 41.621 31.404 A 6.361 6.361 0 0 0 40.9 31.8 A 31.789 31.789 0 0 0 39.165 32.923 A 40.898 40.898 0 0 0 37.75 33.95 Q 36.1 35.2 34.45 36.6 Q 32.8 38 31.25 39.4 A 83.254 83.254 0 0 0 29.41 41.111 A 68.685 68.685 0 0 0 28.4 42.1 L 24.3 45.9 A 25.354 25.354 0 0 1 24.569 46.284 Q 24.865 46.716 25.241 47.294 A 86.355 86.355 0 0 1 25.6 47.85 A 18.267 18.267 0 0 0 26.178 48.695 Q 26.9 49.694 28 51 L 36.9 62 Q 38.3 63.7 39.65 65.45 Q 41 67.2 42.55 68.65 Q 44.1 70.1 45.9 71.1 A 8.765 8.765 0 0 0 48.949 72.104 A 10.763 10.763 0 0 0 50 72.2 L 50.3 72.6 L 50.5 74 L 50.3 74.4 Q 48.6 74.6 46.5 74.65 Q 44.4 74.7 42.3 74.7 A 6.504 6.504 0 0 1 38.917 73.723 Q 38.001 73.175 37.121 72.319 A 12.428 12.428 0 0 1 37 72.2 L 35.1 70.3 A 55.345 55.345 0 0 1 33.165 68.259 A 69.086 69.086 0 0 1 31.8 66.7 L 23.8 56.4 A 113.052 113.052 0 0 0 22.994 55.322 Q 22.118 54.166 21.473 53.39 A 25.574 25.574 0 0 0 21.1 52.95 Q 20.1 51.8 19 50.7 Q 16.974 52.542 16.093 53.493 A 12.369 12.369 0 0 0 15.95 53.65 A 50.857 50.857 0 0 1 15.235 54.433 Q 14.794 54.906 14.4 55.3 Q 14.4 56.675 14.424 57.766 A 66.675 66.675 0 0 0 14.45 58.7 Q 14.5 60.1 14.55 61.3 Q 14.6 62.5 14.65 63.65 Q 14.7 64.8 14.8 66.2 A 28.496 28.496 0 0 0 14.872 67.298 Q 14.984 68.595 15.2 69.35 Q 15.5 70.4 16.3 71.1 A 3.274 3.274 0 0 0 17.193 71.646 Q 17.78 71.894 18.55 72 Q 20 72.2 21.5 72.2 L 22 72.7 L 22.2 74 L 22 74.4 Q 21.3 74.4 19.9 74.3 A 69.834 69.834 0 0 0 18.072 74.195 A 84.944 84.944 0 0 0 16.9 74.15 Q 15.3 74.1 13.9 74.05 Q 12.5 74 11.8 74 L 10.4 74 Q 9.713 74 8.302 74.048 A 172.675 172.675 0 0 0 8.25 74.05 Q 6.8 74.1 5.25 74.15 A 83.117 83.117 0 0 0 2.614 74.276 A 75.368 75.368 0 0 0 2.25 74.3 Q 0.826 74.398 0.126 74.4 A 10.107 10.107 0 0 1 0.1 74.4 L 0 74 L 0.1 72.6 L 0.5 72.2 Q 2.1 72.2 3.65 72.05 Q 4.776 71.941 5.506 71.489 A 2.718 2.718 0 0 0 6 71.1 A 3.277 3.277 0 0 0 7.032 69.377 A 4.023 4.023 0 0 0 7.05 69.3 A 14.33 14.33 0 0 0 7.2 68.535 Q 7.339 67.717 7.461 66.58 A 54.324 54.324 0 0 0 7.5 66.2 Q 7.6 64.9 7.65 63.6 Q 7.7 62.3 7.75 60.55 Q 7.784 59.347 7.795 57.86 A 195.423 195.423 0 0 0 7.8 56.45 L 7.8 50.6 L 7.8 26.6 L 7.8 19.65 A 278.96 278.96 0 0 0 7.793 17.618 Q 7.787 16.815 7.776 16.086 A 152.954 152.954 0 0 0 7.75 14.7 Q 7.707 12.895 7.664 11.46 A 350.214 350.214 0 0 0 7.65 11 Q 7.6 9.4 7.5 7.8 A 5.517 5.517 0 0 0 7.329 6.835 A 4.138 4.138 0 0 0 6.95 5.9 Q 6.5 5.1 6.2 4.7 Q 5.2 3.6 3.7 3.3 Q 2.2 3 0.6 3 L 0.2 2.6 Z M 470.6 26.6 L 469.4 19.4 L 469.7 18.5 A 22.751 22.751 0 0 1 471.735 15.533 A 26.843 26.843 0 0 1 472.7 14.4 A 17.65 17.65 0 0 1 475.97 11.58 A 20.684 20.684 0 0 1 477.05 10.9 A 23.644 23.644 0 0 1 480.511 9.24 A 29.095 29.095 0 0 1 482.85 8.45 A 23.002 23.002 0 0 1 486.659 7.695 A 30.782 30.782 0 0 1 490.2 7.5 Q 500.7 7.5 505.3 12.15 A 15.505 15.505 0 0 1 509.451 20.08 A 22.588 22.588 0 0 1 509.9 24.7 Q 509.9 29.4 507.65 33.3 Q 505.4 37.2 502.1 41.7 Q 499.3 45.5 495.55 49.8 Q 491.8 54.1 488.45 58 Q 486.147 60.681 484.316 62.913 A 176.293 176.293 0 0 0 482.75 64.85 Q 480.826 67.265 480.477 68.441 A 1.641 1.641 0 0 0 480.4 68.9 L 480.6 69.2 L 488.4 69.2 Q 492.994 69.2 496.181 69.112 A 129.984 129.984 0 0 0 498 69.05 Q 501.6 68.9 503.6 68.1 A 7.067 7.067 0 0 0 505.101 67.292 A 5.29 5.29 0 0 0 506.55 65.75 Q 507.48 64.232 508.171 61.42 A 31.39 31.39 0 0 0 508.2 61.3 L 508.7 60.7 L 511.4 60.7 L 509.6 73.6 L 508.7 74.6 A 19.451 19.451 0 0 1 508.369 74.596 Q 507.572 74.582 505.683 74.512 A 495.248 495.248 0 0 1 505.35 74.5 Q 502.7 74.4 499.55 74.3 Q 496.4 74.2 493.45 74.1 Q 490.733 74.008 489.416 74.001 A 39.135 39.135 0 0 0 489.2 74 L 479.3 74 Q 477.171 74 474.527 74.187 A 94.407 94.407 0 0 0 474.35 74.2 Q 471.6 74.4 469 74.6 L 468 73.5 L 468 71.2 Q 469.968 68.695 473.176 65.03 A 298.323 298.323 0 0 1 473.95 64.15 Q 477.7 59.9 481.9 55.15 Q 486.1 50.4 490.2 45.55 Q 493.723 41.382 496.361 37.842 A 109.562 109.562 0 0 0 497.2 36.7 Q 499.5 33.5 501.05 30.3 Q 502.6 27.1 502.6 23.5 A 10.672 10.672 0 0 0 502.005 19.857 A 9.097 9.097 0 0 0 498.85 15.65 A 13.822 13.822 0 0 0 492.594 13.032 A 18.657 18.657 0 0 0 489.6 12.8 Q 483 12.8 478.9 16.15 A 11.599 11.599 0 0 0 475.193 21.731 Q 474.547 23.74 474.4 26.2 L 474 26.6 L 470.6 26.6 Z M 86.6 7.5 L 87.7 7.5 L 104.1 52.9 Q 105.1 55.9 105.85 57.9 Q 106.366 59.275 106.787 60.366 A 164.555 164.555 0 0 0 107.15 61.3 Q 107.528 62.263 107.835 63.012 A 71.818 71.818 0 0 0 108.1 63.65 Q 108.375 64.303 108.603 64.838 A 207.466 207.466 0 0 0 108.8 65.3 A 24.442 24.442 0 0 0 109.492 66.75 Q 110.259 68.222 111.05 69.15 A 10.769 10.769 0 0 0 111.993 70.131 Q 112.514 70.606 113.045 70.942 A 6.118 6.118 0 0 0 113.4 71.15 Q 114.6 71.8 115.85 71.9 Q 117.1 72 118.4 72 L 118.9 72.4 L 119.2 74.2 L 119 74.6 Q 118.3 74.6 116.9 74.5 Q 115.5 74.4 114 74.3 Q 112.5 74.2 111.15 74.1 Q 110.116 74.023 109.464 74.005 A 13.333 13.333 0 0 0 109.1 74 L 105.8 74 Q 105.1 74 103.5 74.1 Q 101.9 74.2 100.15 74.3 Q 98.4 74.4 96.8 74.5 Q 95.327 74.592 94.616 74.599 A 11.368 11.368 0 0 1 94.5 74.6 L 94.3 74.2 L 94.6 72.4 L 95 72 A 20.894 20.894 0 0 0 96.666 71.938 Q 98.276 71.809 99.346 71.41 A 5.685 5.685 0 0 0 99.5 71.35 Q 101.049 70.721 101.098 67.982 A 10.13 10.13 0 0 0 101.1 67.8 A 9.673 9.673 0 0 0 100.963 66.271 Q 100.712 64.714 99.997 62.604 A 43.123 43.123 0 0 0 99.55 61.35 Q 98.077 57.407 95.927 51.522 A 2677.322 2677.322 0 0 1 95.7 50.9 L 94 46.1 L 71.6 46.1 L 69.9 50.9 Q 67.715 56.886 66.206 60.931 A 821.857 821.857 0 0 1 66.05 61.35 Q 64.775 64.763 64.549 66.925 A 8.43 8.43 0 0 0 64.5 67.8 A 8.028 8.028 0 0 0 64.582 68.999 Q 64.863 70.847 66.1 71.35 Q 67.7 72 70.6 72 L 71.1 72.4 L 71.4 74.2 L 71.2 74.6 Q 70.5 74.6 69 74.5 Q 67.5 74.4 65.85 74.3 Q 64.2 74.2 62.7 74.1 Q 61.256 74.004 60.553 74 A 10.434 10.434 0 0 0 60.5 74 L 58.6 74 Q 57.9 74 56.5 74.1 Q 55.1 74.2 53.6 74.3 Q 52.1 74.4 50.75 74.5 Q 49.716 74.577 49.064 74.595 A 13.333 13.333 0 0 1 48.7 74.6 L 48.6 74.2 L 48.8 72.4 L 49.3 72 A 30.778 30.778 0 0 0 51.346 71.934 A 27.442 27.442 0 0 0 51.8 71.9 Q 53 71.8 54.2 71.15 Q 55.275 70.567 56.311 69.423 A 12.236 12.236 0 0 0 56.55 69.15 Q 57.323 68.243 58.118 66.817 A 28.002 28.002 0 0 0 58.9 65.3 A 6.567 6.567 0 0 0 59.217 64.699 A 8.578 8.578 0 0 0 59.45 64.15 A 29.759 29.759 0 0 1 59.594 63.784 Q 59.837 63.177 60.248 62.206 A 136.735 136.735 0 0 0 60.25 62.2 A 91.231 91.231 0 0 0 60.544 61.497 Q 61.013 60.363 61.65 58.75 Q 62.41 56.827 63.571 53.863 A 3196.817 3196.817 0 0 0 63.85 53.15 Q 64.778 50.778 65.99 47.674 A 11839.185 11839.185 0 0 0 67.15 44.7 A 2503.214 2503.214 0 0 1 68.732 40.655 Q 69.441 38.846 70.233 36.832 A 4972.163 4972.163 0 0 1 71.9 32.6 Q 73.2 29.1 74.6 25.65 Q 76 22.2 77.2 19.2 A 641.675 641.675 0 0 1 78.202 16.709 Q 78.662 15.573 79.078 14.561 A 364.285 364.285 0 0 1 79.35 13.9 Q 80.3 11.6 80.7 10.5 L 86.6 7.5 Z M 312.2 73.3 L 311.7 74 A 69.316 69.316 0 0 0 309.466 74.038 Q 308.324 74.075 307.058 74.148 A 118.958 118.958 0 0 0 306.2 74.2 Q 303.254 74.39 301.302 74.58 A 76.866 76.866 0 0 0 301.1 74.6 L 300.4 73.6 Q 304.2 66.9 308 60.05 Q 311.8 53.2 315.2 46.8 Q 318.6 40.4 321.5 34.7 A 883.983 883.983 0 0 0 323.894 29.961 Q 325.341 27.075 326.55 24.6 Q 328.473 20.664 329.636 18.008 A 83.937 83.937 0 0 0 329.9 17.4 A 47.142 47.142 0 0 0 330.308 16.42 Q 330.917 14.905 331.058 14.17 A 2.029 2.029 0 0 0 331.1 13.8 L 330.6 13.4 L 317 13.4 Q 312.483 13.4 309.343 13.517 A 95.063 95.063 0 0 0 307.55 13.6 A 41.594 41.594 0 0 0 305.588 13.754 Q 303.741 13.946 302.495 14.284 A 10.066 10.066 0 0 0 302.1 14.4 A 6.6 6.6 0 0 0 300.977 14.864 Q 300.37 15.188 299.945 15.616 A 3.336 3.336 0 0 0 299.45 16.25 A 7.224 7.224 0 0 0 298.917 17.356 Q 298.696 17.929 298.519 18.612 A 15.871 15.871 0 0 0 298.3 19.6 L 297.7 20.1 L 295.9 20.1 L 295.4 19.4 L 296.9 8.6 L 297.7 7.8 Q 305.7 8.2 313.7 8.4 Q 321.7 8.6 328.2 8.6 L 341.9 8.6 L 342.4 8.9 L 341.9 11.4 A 6.776 6.776 0 0 0 341.548 11.846 Q 340.839 12.813 339.55 15 A 175.555 175.555 0 0 0 338.249 17.248 Q 337.681 18.246 337.069 19.346 A 315.217 315.217 0 0 0 335.8 21.65 Q 333.7 25.5 331.3 30.05 Q 328.9 34.6 326.7 38.85 Q 324.5 43.1 322.7 46.65 Q 321.322 49.368 320.53 51.119 A 41.068 41.068 0 0 0 320.1 52.1 Q 317.8 57.2 315.9 62.15 Q 314 67.1 312.2 73.3 Z M 245.1 52.2 L 244.2 51.7 L 243.1 49.5 Q 245 46.2 247.45 42.2 A 439.795 439.795 0 0 1 251.929 35.047 A 482.693 482.693 0 0 1 252.6 34 Q 255.3 29.8 258.05 25.7 Q 260.8 21.6 263.15 18.15 A 323.636 323.636 0 0 1 264.842 15.689 Q 265.518 14.716 266.145 13.832 A 185.889 185.889 0 0 1 267.35 12.15 Q 269.166 9.646 270.067 8.444 A 91.979 91.979 0 0 1 270.1 8.4 L 276.6 7.5 L 277.4 7.5 L 278.6 8.6 A 19.507 19.507 0 0 0 278.522 9.348 Q 278.489 9.731 278.465 10.16 A 33.994 33.994 0 0 0 278.45 10.45 Q 278.4 11.5 278.35 12.6 Q 278.3 13.7 278.25 14.7 Q 278.2 15.7 278.2 16.3 Q 278.1 17.9 278.05 19.3 Q 278 20.7 277.95 22.6 A 127.538 127.538 0 0 0 277.92 24.137 Q 277.91 24.825 277.905 25.591 A 252.801 252.801 0 0 0 277.9 27.2 L 277.9 34.1 L 277.9 47 L 286.4 47 L 286.8 47.6 L 285.7 51.7 L 285 52.2 L 277.9 52.2 L 277.9 56.8 A 123.987 123.987 0 0 0 277.911 58.493 Q 277.922 59.289 277.944 59.999 A 73.09 73.09 0 0 0 277.95 60.2 Q 278 61.7 278.05 63 A 27.346 27.346 0 0 0 278.162 64.614 A 34.279 34.279 0 0 0 278.3 65.8 A 11.1 11.1 0 0 0 278.467 66.954 Q 278.713 68.163 279.21 68.892 A 3.202 3.202 0 0 0 279.25 68.95 Q 280 70 280.8 70.7 Q 281.6 71.4 283.55 71.8 Q 285.218 72.142 286.557 72.192 A 12.004 12.004 0 0 0 287 72.2 L 287.4 72.7 L 287.6 74 L 287.4 74.4 Q 286.7 74.4 285.3 74.3 A 72.639 72.639 0 0 0 283.21 74.182 A 84.262 84.262 0 0 0 282.35 74.15 Q 280.8 74.1 279.4 74.05 Q 278 74 277.3 74 L 271.7 74 Q 271.055 74 269.647 74.042 A 219.133 219.133 0 0 0 269.4 74.05 Q 267.8 74.1 266.05 74.15 Q 264.3 74.2 262.7 74.3 Q 261.227 74.392 260.516 74.399 A 11.368 11.368 0 0 1 260.4 74.4 L 260.3 74 L 260.7 72.6 L 261.1 72.2 Q 261.788 72.2 262.66 72.126 A 27.843 27.843 0 0 0 262.95 72.1 Q 264 72 265.05 71.8 Q 266.1 71.6 266.95 71.35 A 4.698 4.698 0 0 0 267.437 71.179 Q 267.674 71.08 267.86 70.965 A 1.876 1.876 0 0 0 268.2 70.7 A 7.159 7.159 0 0 0 269.022 69.843 A 9.764 9.764 0 0 0 269.7 68.9 Q 270.202 68.112 270.447 66.861 A 11.475 11.475 0 0 0 270.6 65.8 Q 270.772 63.652 270.87 60.949 A 163.68 163.68 0 0 0 270.9 60.05 A 186.824 186.824 0 0 0 270.961 57.423 Q 271 55.075 271 52.2 L 245.1 52.2 Z M 380.9 37.1 L 380.9 37.5 A 17.298 17.298 0 0 1 384.383 39.005 A 14.581 14.581 0 0 1 386.4 40.4 A 17.119 17.119 0 0 1 389.725 44.035 A 15.978 15.978 0 0 1 390.15 44.7 Q 391.6 47.1 392.3 49.9 A 22.935 22.935 0 0 1 392.986 54.639 A 21.004 21.004 0 0 1 393 55.4 Q 393 59 391.9 62.55 Q 390.8 66.1 388.2 68.85 Q 385.6 71.6 381.35 73.35 A 21.286 21.286 0 0 1 377.239 74.546 Q 375.248 74.927 372.952 75.046 A 41.616 41.616 0 0 1 370.8 75.1 Q 364.6 75.1 360.35 73.4 Q 356.1 71.7 353.55 68.9 Q 351 66.1 349.9 62.55 Q 348.8 59 348.8 55.4 A 21.598 21.598 0 0 1 349.996 48.139 A 19.8 19.8 0 0 1 351.75 44.45 Q 354.7 39.6 360.9 37.5 L 360.9 37.1 A 12.597 12.597 0 0 1 355.72 33.907 A 15.64 15.64 0 0 1 354.8 32.9 A 10.03 10.03 0 0 1 352.978 29.516 Q 352.498 28.041 352.314 26.248 A 23.063 23.063 0 0 1 352.2 23.9 A 19.569 19.569 0 0 1 352.803 18.9 A 13.568 13.568 0 0 1 357.3 11.75 A 17.781 17.781 0 0 1 364.886 8.098 A 25.85 25.85 0 0 1 370.6 7.5 A 27.017 27.017 0 0 1 376.063 8.037 A 23.801 23.801 0 0 1 378.1 8.55 A 18.206 18.206 0 0 1 382.104 10.273 A 15.778 15.778 0 0 1 384.15 11.7 Q 386.7 13.8 388.15 16.9 A 15.254 15.254 0 0 1 389.421 21.299 A 19.699 19.699 0 0 1 389.6 24 A 20.207 20.207 0 0 1 389.462 26.43 Q 389.312 27.661 389.002 28.72 A 11.573 11.573 0 0 1 388.85 29.2 A 13.639 13.639 0 0 1 387.912 31.354 A 10.79 10.79 0 0 1 386.85 32.95 A 12.176 12.176 0 0 1 384.76 35.001 A 11.017 11.017 0 0 1 384.05 35.5 A 16.86 16.86 0 0 1 381.511 36.856 A 15.143 15.143 0 0 1 380.9 37.1 Z M 146.8 8 L 147 8.4 L 146.7 10.2 L 146.3 10.6 Q 144.7 10.6 143.25 10.75 Q 141.8 10.9 140.9 11.6 A 7.159 7.159 0 0 0 140.078 12.457 A 9.764 9.764 0 0 0 139.4 13.4 A 3.721 3.721 0 0 0 139.046 14.153 Q 138.754 14.975 138.599 16.259 A 21.221 21.221 0 0 0 138.5 17.3 Q 138.4 18.7 138.35 19.9 Q 138.3 21.1 138.25 22.7 A 90.19 90.19 0 0 0 138.22 23.998 Q 138.21 24.58 138.205 25.231 A 182.716 182.716 0 0 0 138.2 26.6 L 138.2 32.5 L 138.2 50.9 L 138.2 56.75 Q 138.2 59 138.25 60.5 Q 138.3 62 138.35 63.05 Q 138.4 64.1 138.5 65.3 Q 138.7 68.1 139.4 69.2 A 9.715 9.715 0 0 0 140.102 70.172 A 7.126 7.126 0 0 0 140.9 71 A 3.802 3.802 0 0 0 142.03 71.595 Q 142.582 71.781 143.25 71.85 Q 144.7 72 146.3 72 L 146.7 72.4 L 147 74.2 L 146.8 74.6 Q 146.1 74.6 144.5 74.5 Q 142.9 74.4 141.2 74.3 A 908.321 908.321 0 0 1 138.1 74.113 A 828.451 828.451 0 0 1 137.9 74.1 Q 136.427 74.008 135.716 74.001 A 11.368 11.368 0 0 0 135.6 74 L 133.7 74 Q 133 74 131.4 74.1 Q 129.8 74.2 128.1 74.3 A 908.321 908.321 0 0 0 125 74.487 A 828.451 828.451 0 0 0 124.8 74.5 Q 123.327 74.592 122.616 74.599 A 11.368 11.368 0 0 1 122.5 74.6 L 122.3 74.2 L 122.6 72.4 L 123.1 72 A 30.325 30.325 0 0 0 125.022 71.941 A 25.02 25.02 0 0 0 126.1 71.85 A 5.509 5.509 0 0 0 127.155 71.637 Q 127.843 71.423 128.366 71.026 A 3.508 3.508 0 0 0 128.4 71 Q 129.175 70.322 129.903 69.268 A 13.15 13.15 0 0 0 129.95 69.2 A 3.615 3.615 0 0 0 130.338 68.422 Q 130.758 67.291 130.9 65.3 Q 130.9 64.819 130.924 64.219 A 43.314 43.314 0 0 1 130.95 63.65 Q 131 62.706 131.049 61.317 A 245.162 245.162 0 0 0 131.05 61.3 A 69.183 69.183 0 0 0 131.08 60.166 Q 131.09 59.658 131.095 59.091 A 138.459 138.459 0 0 0 131.1 57.9 L 131.1 52.9 L 131.1 32.6 L 131.1 26.7 A 194.474 194.474 0 0 0 131.093 24.998 Q 131.087 24.33 131.076 23.731 A 98.718 98.718 0 0 0 131.05 22.6 Q 131 20.9 130.95 19.7 Q 130.9 18.5 130.8 17.3 Q 130.6 14.7 129.9 13.5 Q 129.2 12.3 128.4 11.6 Q 127.5 10.9 126.1 10.75 A 26.26 26.26 0 0 0 124.272 10.621 A 31.802 31.802 0 0 0 123.1 10.6 L 122.6 10.2 L 122.3 8.4 L 122.5 8 Q 123.2 8 124.8 8.1 Q 126.4 8.2 128.1 8.3 Q 129.8 8.4 131.4 8.5 A 94.384 94.384 0 0 0 132.144 8.544 Q 133.066 8.594 133.584 8.599 A 11.368 11.368 0 0 0 133.7 8.6 L 135.6 8.6 Q 136.3 8.6 137.9 8.5 Q 139.5 8.4 141.2 8.3 Q 142.9 8.2 144.5 8.1 A 94.384 94.384 0 0 1 145.244 8.056 Q 146.166 8.006 146.684 8.001 A 11.368 11.368 0 0 1 146.8 8 Z M 180.2 32.2 L 179.7 32.7 L 166.7 32.7 Q 166.7 39.2 166.65 44.7 Q 166.616 48.481 166.605 51.624 A 798.917 798.917 0 0 0 166.6 54.35 Q 166.6 57.527 166.571 59.737 A 188.143 188.143 0 0 1 166.55 61 Q 166.503 63.339 166.5 64.015 A 19.23 19.23 0 0 0 166.5 64.1 Q 166.5 67.157 167.421 68.616 A 3.052 3.052 0 0 0 168 69.3 Q 169.5 70.6 171.5 70.6 A 10.933 10.933 0 0 0 173.032 70.484 Q 174.149 70.326 175.45 69.95 A 23.938 23.938 0 0 0 176.988 69.452 Q 177.716 69.188 178.324 68.901 A 11.022 11.022 0 0 0 179.1 68.5 L 180 69.2 L 179.1 72 Q 176.8 73.6 173.95 74.35 A 26.114 26.114 0 0 1 171.742 74.836 Q 170.638 75.026 169.653 75.079 A 13.902 13.902 0 0 1 168.9 75.1 A 14.547 14.547 0 0 1 166.302 74.885 Q 164.904 74.63 163.828 74.076 A 6.119 6.119 0 0 1 161.7 72.3 Q 159.6 69.5 159.6 65.1 A 29.951 29.951 0 0 1 159.605 64.615 Q 159.618 63.828 159.667 62.362 A 402.703 402.703 0 0 1 159.7 61.4 Q 159.798 58.668 159.895 54.602 A 1046.369 1046.369 0 0 0 159.9 54.4 Q 160 50.2 160.1 44.7 Q 160.2 39.2 160.2 32.7 L 153 32.7 L 152.6 32.2 L 152.6 30.3 L 153 29.9 L 160.2 28.5 Q 160.2 25 160.05 21.35 Q 159.9 17.7 159.7 14.2 L 160.4 13.6 L 161.8 13.5 Q 162.537 13.408 164.121 13.146 A 189.613 189.613 0 0 0 164.4 13.1 Q 166.2 12.8 166.9 12.4 L 167.8 12.8 Q 167.5 14.2 167.3 16.05 A 101.952 101.952 0 0 0 167.07 18.46 A 122.554 122.554 0 0 0 166.95 20 Q 166.8 22.1 166.75 24.3 Q 166.7 26.5 166.7 28.5 L 179.7 27.9 L 180.2 28.3 L 180.2 32.2 Z M 437.717 8.342 A 25.125 25.125 0 0 0 431.1 7.5 A 27.158 27.158 0 0 0 428.037 7.669 A 21.766 21.766 0 0 0 419.9 10.2 Q 415 12.9 411.6 17.55 A 31.108 31.108 0 0 0 409.102 21.592 A 37.206 37.206 0 0 0 406.4 28.45 A 44.089 44.089 0 0 0 405.53 32.033 A 49.862 49.862 0 0 0 404.6 41.8 A 53.685 53.685 0 0 0 404.615 43.051 A 47.779 47.779 0 0 0 406.25 54.55 A 37.967 37.967 0 0 0 407.305 57.834 A 31.395 31.395 0 0 0 411.15 65.15 Q 414.4 69.7 419.25 72.4 A 20.636 20.636 0 0 0 424.869 74.507 A 26.516 26.516 0 0 0 430.6 75.1 Q 437.2 75.1 442.3 72.25 Q 447.4 69.4 450.8 64.7 A 31.575 31.575 0 0 0 452.943 61.297 A 36.228 36.228 0 0 0 455.95 53.85 Q 457.7 47.7 457.7 41.1 Q 457.7 34.4 455.9 28.3 A 39.661 39.661 0 0 0 455.019 25.655 A 33.482 33.482 0 0 0 450.7 17.55 Q 447.3 12.9 442.35 10.2 A 21.325 21.325 0 0 0 437.717 8.342 Z M 211.8 26.5 Q 217.7 26.5 222.3 28.55 A 23.795 23.795 0 0 1 228.163 32.22 A 21.694 21.694 0 0 1 230.05 34.05 Q 233.2 37.5 234.85 42 Q 236.5 46.5 236.5 51.3 Q 236.5 55.9 235 60.2 Q 233.5 64.5 230.4 67.8 Q 227.3 71.1 222.7 73.1 A 23.444 23.444 0 0 1 217.05 74.717 A 31.825 31.825 0 0 1 212 75.1 A 31.982 31.982 0 0 1 206.619 74.669 A 23.349 23.349 0 0 1 201 73 A 24.659 24.659 0 0 1 196.235 70.226 A 20.642 20.642 0 0 1 193.25 67.5 Q 190.2 64.1 188.7 59.75 Q 187.2 55.4 187.2 50.8 Q 187.2 45.9 188.9 41.5 Q 190.6 37.1 193.75 33.75 A 22.364 22.364 0 0 1 200.471 28.893 A 26.035 26.035 0 0 1 201.45 28.45 A 23.822 23.822 0 0 1 207.626 26.774 A 30.709 30.709 0 0 1 211.8 26.5 Z M 431 69.8 A 15.376 15.376 0 0 0 436.315 68.899 A 14.187 14.187 0 0 0 439.05 67.55 Q 442.6 65.3 445 61.4 A 29.288 29.288 0 0 0 447.517 56.164 A 37.376 37.376 0 0 0 448.7 52.3 Q 450 47.1 450 41.2 A 47.11 47.11 0 0 0 449.419 33.67 A 40.063 40.063 0 0 0 448.65 30 Q 447.3 24.8 444.8 20.95 A 20.202 20.202 0 0 0 441.461 16.977 A 17.486 17.486 0 0 0 438.75 14.95 A 14.952 14.952 0 0 0 431.81 12.834 A 18.13 18.13 0 0 0 430.7 12.8 A 15.932 15.932 0 0 0 426.29 13.389 A 13.414 13.414 0 0 0 422.8 14.95 A 17.213 17.213 0 0 0 418.04 19.479 A 20.838 20.838 0 0 0 417.1 20.9 A 27.394 27.394 0 0 0 414.808 25.745 A 35.83 35.83 0 0 0 413.6 29.85 A 45.725 45.725 0 0 0 412.569 36.659 A 56.874 56.874 0 0 0 412.4 41.1 A 57.001 57.001 0 0 0 412.727 47.356 A 41.939 41.939 0 0 0 413.75 53.1 A 33.782 33.782 0 0 0 415.268 57.717 A 24.761 24.761 0 0 0 417.6 62.1 Q 420.1 65.8 423.5 67.8 Q 426.9 69.8 431 69.8 Z M 211.9 71.2 Q 216.1 71.2 219.3 69.5 Q 222.5 67.8 224.6 65 A 19.814 19.814 0 0 0 227.683 58.871 A 22.352 22.352 0 0 0 227.75 58.65 Q 228.8 55.1 228.8 51.3 A 24.145 24.145 0 0 0 227.92 44.923 A 27.524 27.524 0 0 0 227.65 44 Q 226.5 40.3 224.3 37.35 Q 222.1 34.4 218.9 32.55 Q 215.7 30.7 211.5 30.7 Q 207.1 30.7 203.95 32.45 Q 200.8 34.2 198.75 37 A 19.309 19.309 0 0 0 195.966 42.512 A 22.238 22.238 0 0 0 195.7 43.4 Q 194.7 47 194.7 50.6 Q 194.7 54.3 195.85 57.95 Q 197 61.6 199.2 64.55 Q 201.4 67.5 204.6 69.35 A 13.842 13.842 0 0 0 210.333 71.129 A 17.088 17.088 0 0 0 211.9 71.2 Z M 364.498 41.722 A 10.444 10.444 0 0 0 363.95 42 A 14.307 14.307 0 0 0 361.204 43.925 A 12.051 12.051 0 0 0 359.55 45.75 Q 357.9 48 357.15 50.7 A 20.67 20.67 0 0 0 356.497 54.077 A 17.48 17.48 0 0 0 356.4 55.9 A 13.575 13.575 0 0 0 356.612 58.23 A 18.376 18.376 0 0 0 357.15 60.45 A 13.433 13.433 0 0 0 359.573 64.967 A 15.232 15.232 0 0 0 359.6 65 A 12.275 12.275 0 0 0 362.586 67.631 A 15.244 15.244 0 0 0 364.05 68.45 A 12.279 12.279 0 0 0 366.925 69.419 Q 368.273 69.705 369.835 69.776 A 23.323 23.323 0 0 0 370.9 69.8 A 22.342 22.342 0 0 0 373.785 69.624 Q 376.031 69.331 377.75 68.55 Q 380.5 67.3 382.2 65.35 Q 383.9 63.4 384.65 60.95 Q 385.4 58.5 385.4 56.1 Q 385.4 53.4 384.6 50.65 Q 383.8 47.9 382.05 45.65 Q 380.3 43.4 377.5 41.95 A 12.387 12.387 0 0 0 374.2 40.821 Q 372.583 40.5 370.7 40.5 Q 367.09 40.5 364.498 41.722 Z M 250.6 47 L 271 47 L 271 34.3 L 271 29.8 Q 271 27.4 270.95 24.9 Q 270.9 22.4 270.85 20.05 A 152.956 152.956 0 0 0 270.797 18.099 Q 270.766 17.209 270.727 16.417 A 86.082 86.082 0 0 0 270.7 15.9 A 60.078 60.078 0 0 0 269.545 17.306 Q 268.365 18.783 266.854 20.819 A 205.042 205.042 0 0 0 266.35 21.5 Q 263.7 25.1 260.85 29.5 Q 258 33.9 255.25 38.5 Q 252.5 43.1 250.6 47 Z M 82.9 16.1 L 73.3 41.8 L 92.4 41.8 L 82.9 16.1 Z M 382 23.6 A 17.742 17.742 0 0 0 381.771 20.643 Q 381.5 19.048 380.912 17.799 A 7.427 7.427 0 0 0 379.1 15.35 Q 376.734 13.269 372.636 12.886 A 20.826 20.826 0 0 0 370.7 12.8 A 19.275 19.275 0 0 0 367.695 13.018 Q 366.158 13.261 364.943 13.776 A 7.434 7.434 0 0 0 362.35 15.55 A 8.925 8.925 0 0 0 360.379 19.073 Q 359.963 20.436 359.846 22.075 A 18.603 18.603 0 0 0 359.8 23.4 A 19.18 19.18 0 0 0 360.093 26.867 Q 360.445 28.782 361.222 30.287 A 9.272 9.272 0 0 0 362.8 32.5 Q 365.8 35.6 370.9 35.6 A 10.621 10.621 0 0 0 374.569 34.973 A 10.046 10.046 0 0 0 375.35 34.65 Q 377.4 33.7 378.9 32.05 Q 380.4 30.4 381.2 28.25 A 12.921 12.921 0 0 0 381.976 24.449 A 15.088 15.088 0 0 0 382 23.6 Z" vector-effect="non-scaling-stroke"/></g></svg>

  <!-- <polygon points="40,110 55,114 40,118" fill="black"/> -->
</svg>